<?xml version="1.0" encoding="UTF-8" standalone="no"?><!DOCTYPE svg PUBLIC "-//W3C//DTD SVG 1.1//EN" "http://www.w3.org/Graphics/SVG/1.1/DTD/svg11.dtd"><svg width="100%" height="100%" viewBox="0 0 3863 3859" version="1.1" xmlns="http://www.w3.org/2000/svg" xmlns:xlink="http://www.w3.org/1999/xlink" xml:space="preserve" xmlns:serif="http://www.serif.com/" style="fill-rule:evenodd;clip-rule:evenodd;stroke-linecap:round;stroke-linejoin:round;stroke-miterlimit:1.5;"><g><g><g><path d="M3858.52,965.286l0,1927.91c0,532.021 -431.934,963.955 -963.955,963.955l-1927.91,-0c-532.021,-0 -963.955,-431.934 -963.955,-963.955l0,-1927.91c0,-532.021 431.934,-963.955 963.955,-963.955l1927.91,0c532.021,0 963.955,431.934 963.955,963.955Z" style="fill:#fff;"/><g><g><g><g><path d="M738.434,3677.54l318.826,-0.463c0,0 -1.165,-84.67 0.782,-109.542c1.077,-13.76 3.139,-29.599 10.9,-39.687c7.761,-10.088 22.262,-19.228 35.667,-20.843c26.713,-3.218 124.616,1.532 124.616,1.532l1.193,-228.733c0,-37.671 -30.584,-68.255 -68.255,-68.255l-423.729,-0c-37.671,-0 -68.255,30.584 -68.255,68.255l-0,329.481c-0,37.671 30.584,68.255 68.255,68.255Z" style="fill:none;stroke:#cdcdcd;stroke-width:35.26px;"/><path d="M1218.09,3496.97c6.955,-6.806 18.126,-6.686 24.932,0.269c6.807,6.954 6.686,18.126 -0.268,24.932l-171.63,167.972c-6.955,6.807 -18.127,6.686 -24.933,-0.268c-6.806,-6.955 -6.686,-18.126 0.269,-24.933l171.63,-167.972Z" style="fill:#cdcdcd;"/></g></g><path d="M1014.66,3154.6c-0.065,5.749 -4.785,10.363 -10.534,10.298c-5.749,-0.065 -10.363,-4.785 -10.298,-10.534l3.798,-334.975c0.038,-3.381 1.715,-6.532 4.497,-8.453l222.379,-153.552c4.731,-3.266 11.224,-2.077 14.491,2.653c3.266,4.731 2.078,11.224 -2.653,14.491l-217.943,150.488l-3.737,329.584Z" style="fill:#cdcdcd;"/><g><ellipse cx="421.38" cy="2615.26" rx="248.799" ry="66.567" style="fill:none;stroke:#cdcdcd;stroke-width:34.94px;"/><path d="M670.178,2774.66c-0.276,36.677 -111.653,66.431 -248.798,66.431c-137.316,-0 -248.799,-29.828 -248.799,-66.567c-0,-0.137 0.001,-0.273 0.004,-0.409c0.002,-0.068 0.004,-0.136 0.006,-0.204c0.001,-0.034 0.002,-0.068 0.004,-0.102" style="fill:none;stroke:#cdcdcd;stroke-width:34.94px;"/><path d="M670.178,2933.93c-0.276,36.676 -111.653,66.43 -248.798,66.43c-137.316,0 -248.799,-29.827 -248.799,-66.567c-0,-0.136 0.001,-0.272 0.004,-0.408c0.002,-0.068 0.004,-0.137 0.006,-0.205c0.001,-0.034 0.002,-0.068 0.004,-0.102" style="fill:none;stroke:#cdcdcd;stroke-width:34.94px;"/><path d="M670.179,3093.19c-0.277,36.677 -111.653,66.431 -248.799,66.431c-137.316,-0 -248.799,-29.828 -248.799,-66.568" style="fill:none;stroke:#cdcdcd;stroke-width:34.94px;"/><path d="M155.109,2615.26c-0,-9.643 7.829,-17.472 17.472,-17.472c9.643,0 17.472,7.829 17.472,17.472l0,477.787c0,9.644 -7.829,17.473 -17.472,17.473c-9.643,-0 -17.472,-7.829 -17.472,-17.473l-0,-477.787Z" style="fill:#cdcdcd;"/><path d="M652.706,2615.26c0,-9.643 7.829,-17.472 17.473,-17.472c9.643,0 17.472,7.829 17.472,17.472l-0,477.787c-0,9.644 -7.829,17.473 -17.472,17.473c-9.644,-0 -17.473,-7.829 -17.473,-17.473l0,-477.787Z" style="fill:#cdcdcd;"/></g><path d="M431.795,2496.91c-0.081,5.748 -4.814,10.35 -10.562,10.269c-5.749,-0.081 -10.35,-4.814 -10.269,-10.563l10.394,-738.118c0.055,-3.917 2.304,-7.473 5.82,-9.201l439.23,-215.894c5.16,-2.536 11.408,-0.406 13.944,4.754c2.536,5.159 0.406,11.407 -4.754,13.943l-433.499,213.077l-10.304,731.733Z" style="fill:#cdcdcd;"/><g><g><circle cx="3145.95" cy="743.592" r="19.053" style="fill:#cdcdcd;"/><circle cx="3191.69" cy="743.592" r="19.053" style="fill:#cdcdcd;"/><circle cx="3237.43" cy="743.592" r="19.053" style="fill:#cdcdcd;"/><path d="M3745.58,725.722l-0,474.312c-0,18.099 -14.695,32.794 -32.794,32.794l-591.633,-0c-18.1,-0 -32.794,-14.695 -32.794,-32.794l-0,-474.312c-0,-18.099 14.694,-32.794 32.794,-32.794l591.633,0c18.099,0 32.794,14.695 32.794,32.794Z" style="fill:none;stroke:#cdcdcd;stroke-width:35.26px;"/><rect x="3087.95" y="775.594" width="657.221" height="18.576" style="fill:#cdcdcd;"/><path d="M3345.68,853.173l187.753,171.598l-110.709,-1.934l-74.924,83.744l-2.12,-253.408Z" style="fill:#cdcdcd;"/><path d="M3471.51,1134.72c-5.292,-10.837 -3.083,-11.64 -63.912,-136.529" style="fill:#cdcdcd;"/><path d="M3487.36,1126.99c4.27,8.744 0.638,19.31 -8.106,23.579c-8.744,4.27 -19.31,0.637 -23.579,-8.106c-5.293,-10.839 -3.084,-11.642 -63.92,-136.546c-4.261,-8.748 -0.618,-19.31 8.13,-23.571c8.749,-4.261 19.31,-0.618 23.571,8.131c60.822,124.875 58.613,125.678 63.904,136.513Z" style="fill:#cdcdcd;"/></g></g><path d="M3025.54,954.042c5.749,0.04 10.385,4.739 10.345,10.488c-0.039,5.749 -4.738,10.385 -10.487,10.345l-225.128,-1.537l-304.943,574.299c-2.696,5.078 -9.007,7.011 -14.085,4.315c-5.078,-2.696 -7.011,-9.008 -4.315,-14.085l307.902,-579.874c1.82,-3.426 5.392,-5.558 9.272,-5.531l231.439,1.58Z" style="fill:#cdcdcd;"/><g><g><path d="M3087.95,194.635l-0.463,318.827c0,0 -84.67,-1.166 -109.542,0.781c-13.76,1.078 -29.599,3.14 -39.687,10.901c-10.088,7.761 -19.228,22.262 -20.843,35.666c-3.218,26.714 1.532,124.617 1.532,124.617l-228.733,1.193c-37.671,-0 -68.255,-30.584 -68.255,-68.255l-0,-423.73c-0,-37.671 30.584,-68.255 68.255,-68.255l329.481,0c37.671,0 68.255,30.584 68.255,68.255Z" style="fill:none;stroke:#cdcdcd;stroke-width:35.26px;"/><path d="M2932.58,698.952c-6.806,6.954 -17.978,7.074 -24.932,0.268c-6.955,-6.806 -7.075,-17.978 -0.269,-24.932l167.973,-171.63c6.806,-6.955 17.977,-7.075 24.932,-0.269c6.954,6.806 7.075,17.978 0.268,24.932l-167.972,171.631Z" style="fill:#cdcdcd;"/></g></g><path d="M2569.12,397.404c5.749,0.021 10.399,4.706 10.378,10.455c-0.021,5.749 -4.705,10.4 -10.455,10.378l-352.876,-1.296l-544.863,1168.2c-2.431,5.21 -8.634,7.468 -13.844,5.037c-5.21,-2.43 -7.467,-8.633 -5.037,-13.843l547.679,-1174.24c1.717,-3.681 5.417,-6.028 9.479,-6.014l359.539,1.321Z" style="fill:#cdcdcd;"/></g></g></g></g><g><path d="M1369.44,3344.62c50.034,3.17 131.025,-11.412 174.057,-20.122c-5.908,-189.507 7.83,-471.397 22.895,-584.046c3.863,-28.889 8.791,-48.44 12.595,-56.116l9.262,-12.405l10.835,-6.662c42.84,-16.629 82.78,1.513 114.05,35.566c37.608,40.954 61.013,104.181 63.103,117.08c45.073,278.279 60.243,309.977 -12.013,449.914c58.368,6.036 75.101,-4.02 150.133,-6.263c2.009,-8.412 4.958,-21.968 6.221,-33.823c3.706,-34.768 4.827,-81.417 4.483,-132.364c-1.105,-163.688 -17.498,-370.553 -17.62,-382.795c-0.183,-18.396 14.604,-33.48 33,-33.664c18.396,-0.183 33.48,14.604 33.663,33c0.164,16.457 29.166,381.771 12.241,527.604c-3.797,32.72 -11.112,56.369 -19.059,67.949l-8.464,9.629l-8.48,5.881l-9.017,3.538l-10.026,1.365c-113.779,1.466 -113.097,18.529 -224.582,-1.03c-10.577,-1.856 -19.612,-8.694 -24.272,-18.369c-4.659,-9.675 -4.372,-21.003 0.771,-30.429c88.828,-162.797 72.187,-171.811 27.212,-449.483c-1.489,-9.193 -19.598,-53.464 -46.398,-82.649c-8.446,-9.197 -17.557,-17.977 -27.995,-19.847c-16.892,88.428 -33.763,423.563 -24.875,623.754c0.72,16.226 -10.359,30.609 -26.232,34.054c-18.197,3.948 -161.141,34.238 -231.269,26.252c-19.992,-2.276 -33.083,-7.608 -41.271,-13.36l-12.177,-12.097l-4.516,-8.084l-2.776,-8.729l-0.76,-14.936l4.684,-17.673c5.648,-13.395 18.771,-30.708 35.729,-50.622c30.527,-35.846 39.202,-53.685 36.412,-113.848c-3.351,-72.286 -20.974,-195.572 -41.251,-442.653c-1.504,-18.336 12.16,-34.443 30.496,-35.948c18.335,-1.505 34.443,12.16 35.948,30.495c20.384,248.398 38.034,372.347 41.403,445.019c3.931,84.795 -9.227,109.636 -52.251,160.159c-5.073,5.956 -9.784,11.543 -13.889,16.758Z"/><path d="M2609.48,2417.17c0.528,-18.39 15.887,-32.891 34.277,-32.362c18.389,0.528 32.89,15.887 32.362,34.276c-3.872,134.758 26.666,127.856 117.133,280.688c20.448,34.544 66.091,76.697 104.285,129.283c43.494,59.882 77.634,131.789 68.048,217.791c-6.275,56.297 -22.899,97.683 -39.175,137.219c-20.72,50.332 -40.926,97.175 -27.175,178.559c3.065,18.14 -9.174,35.356 -27.314,38.421c-18.14,3.065 -35.356,-9.174 -38.421,-27.314c-13.934,-82.466 0.159,-135.857 19.857,-186.778c16.907,-43.708 39.024,-85.154 45.972,-147.492c7.565,-67.871 -21.408,-123.97 -55.732,-171.228c-39.624,-54.554 -86.501,-98.666 -107.714,-134.502c-101.388,-171.282 -130.742,-165.535 -126.403,-316.561Z"/><path d="M2880.46,3405.6c-18.382,-0.725 -32.719,-16.237 -31.995,-34.62c0.725,-18.383 16.238,-32.72 34.62,-31.995c74.647,2.941 82.416,8.986 142.199,3.125c40.483,-265.548 57.345,-263.933 73.004,-344.602c39.682,-204.422 -35.02,-339.712 -49.361,-365.498c-8.942,-16.078 -3.149,-36.391 12.929,-45.333c16.078,-8.942 36.391,-3.148 45.333,12.93c16.117,28.978 101.14,180.873 56.545,410.605c-16.018,82.514 -33.405,78.239 -76.329,367.097c-2.206,14.841 -14.055,26.38 -28.949,28.19c-89.37,10.864 -88.65,3.621 -177.996,0.101Z"/><path d="M2566.72,3264.85c3.787,0.518 7.834,0.965 11.34,1.114c32.751,1.398 76.625,-2.733 109.518,-5.446c92.823,-424.406 87.926,-431.532 93.564,-472.237c2.524,-18.224 19.369,-30.969 37.592,-28.445c18.223,2.524 30.969,19.369 28.444,37.592c-5.803,41.896 -0.458,48.602 -99.803,501.673c-3.215,14.659 -15.828,25.363 -30.814,26.149c-30.869,1.619 -88.179,8.239 -131.513,7.597c-23.059,-0.341 -42.834,-3.073 -55.572,-7.984l-16.824,-9.645l-10.653,-12.636l-5.169,-14.74l0.194,-15.014c12.693,-70.76 51.465,-161.257 71.51,-254.741c17.949,-83.712 20.907,-170.395 -35.117,-244.544c-11.091,-14.679 -8.178,-35.6 6.501,-46.69c14.678,-11.091 35.599,-8.178 46.69,6.501c68.576,90.761 69.082,196.242 47.111,298.71c-18.055,84.205 -51.577,165.927 -66.999,232.786Z"/><path d="M2961,1744.26c-11.654,14.236 -32.672,16.333 -46.908,4.679c-14.235,-11.653 -16.332,-32.672 -4.678,-46.908c104.236,-127.333 268.15,-110.185 330.13,-22.533c41.084,58.101 44.116,151.668 -51.755,259.851c-12.202,13.769 -33.286,15.041 -47.055,2.839c-13.769,-12.202 -15.041,-33.286 -2.839,-47.055c66.336,-74.855 75.643,-136.943 47.216,-177.145c-42.265,-59.772 -153.03,-60.559 -224.111,26.272Z"/><path d="M1008.42,880.91c11.117,4.123 19.684,14.059 21.455,26.614c2.809,19.915 -1.748,35.502 -9.505,47.572c-11.213,17.448 -30.442,28.037 -50.676,31.202c-22.716,3.553 -45.392,-3.054 -57.41,-13.004c-3.406,-2.819 -6.277,-5.679 -8.702,-8.523l-7.133,-10.401l-4.703,-12.155l-1.52,-12.827l3.477,-18.418c2.523,-6.753 6.501,-13.454 11.743,-19.753c17.176,-20.635 51.409,-37.238 55.713,-39.222c16.709,-7.699 36.525,-0.384 44.224,16.324c1.883,4.086 2.868,8.357 3.037,12.591Z"/><path d="M2387.07,2665.39c7.043,-6.556 36.248,-32.455 60.246,-41.226c6.671,-2.438 13.15,-3.836 19.131,-4.224l16.168,1.417l14.41,6.351l11.786,11.14c11.14,14.833 17.884,26.715 23.456,36.517c3.492,6.142 5.516,11.2 10.165,14.969c5.067,4.108 12.646,6.431 25.11,9.484c14.692,3.597 28.099,-7.27 42.02,-17.768c23.092,-17.413 45.087,-39.477 64.731,-52.523c31.331,-20.806 59.994,-22.558 83.86,-2.169c102.804,87.826 230.598,32.372 286.922,-39.772c18.334,-23.483 40.512,-54.912 53.611,-89.058c16.45,-42.88 16.909,-90.838 -35.371,-127.988c-10.238,-7.275 -15.517,-19.687 -13.658,-32.107c1.859,-12.421 10.542,-22.742 22.461,-26.7c5.532,-1.837 22.514,-4.749 39.419,-13.947c11.976,-6.516 24.494,-16.836 28.536,-34.994c12.577,-56.503 -24.082,-79.554 -30.183,-83.138c-9.23,-5.421 -15.295,-14.945 -16.304,-25.601c-1.008,-10.657 3.162,-21.149 11.211,-28.206c13.727,-12.034 29.13,-24.514 41.582,-38.87c13.177,-15.191 23.038,-32.842 16.665,-56.507c-10.735,-39.862 -52.706,-52.901 -58.888,-54.612c-17.731,-4.907 -28.142,-23.286 -23.234,-41.017c4.907,-17.73 23.286,-28.141 41.016,-23.234c11.27,3.119 85.911,28.863 105.479,101.527c11.137,41.357 0.742,74.518 -19.144,102.837c-8.583,12.222 -19.188,23.428 -30.331,33.955c21.137,23.846 41.255,64.23 27.205,127.351c-8.94,40.164 -35.847,63.809 -61.377,77.93c72.332,91.809 5.383,207.403 -46.146,273.405c-74.388,95.28 -242.806,165.216 -379.158,52.474c-2.163,1.042 -5.189,2.581 -7.292,3.977c-9.918,6.587 -20.418,15.896 -31.465,25.459c-20.775,17.984 -43.196,36.509 -65.894,46.755c-20.427,9.221 -41.306,12.394 -62.131,7.294c-46.707,-11.439 -58.787,-25.396 -72.05,-47.127c-4.408,-7.221 -8.791,-16.045 -16.086,-27.134c-2.57,1.405 -5.31,2.991 -7.337,4.395c-14.707,10.187 -27.123,22.496 -27.538,22.811c-44.942,34.144 -80.608,33.302 -106.862,22.675c-30.228,-12.234 -49.524,-41.98 -58.85,-60.552c-4.049,2.592 -9.046,5.957 -12.787,9.018c-12.678,10.373 -26.197,22.897 -40.136,33.669c-27.547,21.29 -57.444,34.55 -85.886,29.958c-24.346,-3.93 -51.624,-20.677 -75.149,-66.171c-12.342,11.023 -25.643,25.496 -37.826,33.669c-28.493,19.112 -53.777,24.843 -75.993,23.797c-32.266,-1.519 -59.079,-18.284 -81.392,-37.026c-7.165,-6.019 -16.931,-14.021 -23.507,-19.388c-27.59,39.544 -52.175,53.073 -74.715,54.874c-15.925,1.272 -32.593,-3.067 -51.175,-13.387c-18.255,-10.137 -39.888,-27.122 -68.798,-46.583c-4.517,8.044 -11.319,19.81 -17.923,29.897c-19.882,30.367 -38.158,41.753 -80.979,44.611c-29.471,1.968 -75.471,-1.172 -155.267,-1.062c-18.397,0.026 -33.354,-14.89 -33.38,-33.287c-0.025,-18.397 14.89,-33.354 33.287,-33.379c77.563,-0.108 122.274,3.122 150.92,1.21c15.306,-1.022 22.536,-3.755 29.643,-14.61c13.866,-21.178 21.326,-38.704 29.839,-48.009l13.444,-10.837l9.278,-4.031l10.201,-2.032c11.34,-1.017 26.818,1.874 47.67,15.892c23.162,15.571 41.375,29.594 56.936,39.454c8.278,5.245 14.345,10.229 20.994,9.698c3.498,-0.279 6.09,-3.357 9.817,-7.104c5.925,-5.958 12.081,-14.08 18.966,-24.527c5.567,-8.446 11.392,-14.349 17.033,-18.509l11.97,-6.701l13.651,-3.354l10.716,0.051l9.57,1.917c6.885,2.009 14.115,5.558 21.497,10.611c10.381,7.106 21.81,18.126 34.715,28.808c11.441,9.47 24.208,19.687 40.644,20.231c10.437,0.345 21.882,-3.656 35.2,-12.59c10.914,-7.321 22.657,-20.269 33.797,-30.286c12.506,-11.246 25.076,-19.456 35.475,-22.594l9.222,-1.896l10.865,0.083l15.223,4.84l12.228,9.496l6.25,8.323l4.33,8.512c7.098,16.862 14.113,29.136 21.608,37.427c3.823,4.229 7.282,7.177 11.208,8.046c6.667,1.475 12.97,-2.28 19.582,-6.144c12.738,-7.444 25.115,-18.329 37.012,-28.612c22.478,-19.431 44.45,-36.231 62.649,-40.927l15.772,-1.977l17.486,3.095l15.846,8.862l11.907,12.518c0.213,0.29 4.023,10.021 10.919,22.501c4.734,8.566 11.848,21.215 24.971,23.775c9.944,1.94 21.554,-2.791 36.681,-14.069Z"/><path d="M1741.22,1814.12c-4.532,17.831 -22.686,28.628 -40.517,24.096c-17.83,-4.531 -28.627,-22.686 -24.096,-40.516c1.352,-5.321 10.493,-58.401 32.859,-105.2c18.137,-37.951 45.421,-70.7 80.352,-82.216c37.965,-12.516 67.867,-9.482 91.24,-0.102c21.442,8.605 37.524,23.306 49.31,38.515c17.989,-23.027 34.186,-40.076 49.044,-52.048c19.799,-15.953 38.291,-24.003 55.721,-26.616c31.162,-4.672 61.673,8.746 94.904,38.133c13.932,-18.423 27.448,-33.56 40.881,-44.706c18.022,-14.954 36.465,-23.523 55.41,-25.881c19.763,-2.46 40.582,1.52 62.862,14.761c18.017,10.708 37.822,28.483 59.64,55.008c5.394,-6.163 11.369,-12.345 17.903,-17.903c27.814,-23.661 63.608,-37.452 106.95,-17.5c45.22,20.815 72.709,54.377 88.904,82.446c19.197,-16.755 36.454,-28.786 52.309,-36.385c21.827,-10.46 41.984,-13.543 61.387,-10.583c18.753,2.861 37.207,11.547 55.835,27.308c16.171,13.682 33.029,33.449 51.469,59.51c16.02,-10.54 32.084,-19.437 47.941,-24.547c22.334,-7.196 44.554,-7.766 66.543,0.908c25.905,10.219 53.712,35.59 79.066,88.867c19.382,-3.511 34.405,-6.695 47.291,-8.076c16.733,-1.793 30.862,-0.967 44.95,3.378c20.373,6.284 41.552,20.729 71.66,52.79c31.715,33.773 32.326,62.351 22.342,95.646c-4.493,14.982 -12.091,31.389 -18.748,51.163c-5.869,17.436 -24.791,26.826 -42.226,20.956c-17.436,-5.87 -26.826,-24.791 -20.956,-42.227c6.385,-18.966 13.763,-34.671 18.072,-49.041c3.219,-10.733 3.142,-19.973 -7.082,-30.861c-18.619,-19.827 -30.112,-30.834 -42.711,-34.72c-7.844,-2.42 -15.741,-1.333 -25.861,0.223c-15.959,2.453 -35.433,6.867 -61.86,10.9c-15.33,2.34 -30.249,-6.202 -35.992,-20.607c-17.957,-45.042 -33.464,-68.902 -52.408,-76.374c-9.747,-3.845 -19.494,-0.876 -29.414,3.538c-16.5,7.342 -32.918,19.566 -49.409,31.749c-7.402,5.469 -16.735,7.635 -25.789,5.983c-9.054,-1.651 -17.022,-6.973 -22.016,-14.703c-18.453,-28.559 -34.539,-50.736 -50.007,-66.229c-10.695,-10.713 -20.158,-18.014 -30.745,-19.63c-9.779,-1.492 -19.6,2.505 -31.087,9.474c-17.619,10.689 -37.045,28.117 -60.055,51.874c-8.252,8.519 -20.409,12.012 -31.924,9.173c-11.516,-2.84 -20.655,-11.584 -24,-22.963c-2.591,-8.816 -18.078,-62.937 -73.355,-88.382c-14.677,-6.756 -26.459,-0.292 -35.878,7.72c-17.123,14.567 -29.169,34.644 -36.765,43.356c-6.747,7.74 -16.683,11.938 -26.935,11.381c-10.252,-0.558 -19.675,-5.808 -25.543,-14.233c-21.533,-30.914 -40.131,-52.438 -57.339,-65.494c-10.656,-8.086 -19.689,-12.63 -28.786,-11.498c-10.04,1.25 -18.819,8.271 -28.371,17.662c-14.269,14.027 -28.478,33.497 -43.862,56.648c-5.675,8.541 -14.965,13.994 -25.188,14.786c-10.224,0.792 -20.243,-3.165 -27.165,-10.73c-15.337,-16.758 -28.901,-30.351 -42.254,-39.009c-7.696,-4.99 -14.847,-8.307 -22.704,-7.129c-10.297,1.544 -20.42,8.8 -32.639,20.393c-17.215,16.333 -36.222,40.568 -58.553,73.828c-7.164,10.67 -19.825,16.272 -32.54,14.395c-12.715,-1.876 -23.218,-10.895 -26.995,-23.18c-1.623,-5.276 -10.056,-38.107 -38.062,-49.347c-11.672,-4.684 -26.578,-4.703 -45.537,1.547c-19.115,6.302 -31.15,26.881 -41.075,47.648c-19.708,41.239 -27.205,88.185 -28.396,92.873Z"/><path d="M1001.53,681.4c0.573,-1.198 1.993,-4.26 2.59,-6.384c1.835,-6.535 2.742,-14.194 3.251,-22.514c1.603,-26.195 -1.059,-57.736 -2.353,-86.257c-1.501,-33.064 -0.447,-62.774 6.196,-80.843c1.384,-3.766 2.981,-7.204 4.748,-10.313l7.44,-10.292l6.903,-6.301l8.421,-5.14c32.436,-15.577 65.311,-3.317 95.707,33.9c21.689,26.556 44.025,67.362 69.953,104.759c21.091,30.421 43.931,59.375 73.673,69.609c29.751,10.237 48.262,25.562 60.055,42.464c17.492,25.068 20.381,54.978 17.403,83.474c-1.342,12.85 -3.798,25.258 -5.656,36.161c-0.171,1.001 -0.337,2.087 -0.495,3.196c43.789,14.133 68.621,34.93 82.614,56.874c24.137,37.852 17.46,83.297 5.085,122.656c-3.369,10.718 -7.544,24.899 -10.207,34.048c38.032,16.972 60.858,35.421 73.208,57.738c9.436,17.052 13.594,36.829 11.915,61.478c-1.354,19.879 -6.866,43.89 -16.057,73.666c14.722,2.548 24.869,6.123 34.506,12.872c11.183,7.831 22.206,20.438 37.489,44.005c25.056,38.637 23.44,79.798 10.875,115.946c-7.185,20.673 -20.032,41.801 -31.103,57.786c35.548,27.804 50.942,55.436 55.251,82.041c3.494,21.566 -0.117,43.506 -9.324,66.313c-1.956,4.846 -4.188,9.753 -6.652,14.73c16.932,-0.54 34.945,1.836 52.637,9.372c39.851,16.975 82.03,60.061 102.03,163.119c3.505,18.06 -8.312,35.568 -26.372,39.073c-18.06,3.505 -35.568,-8.312 -39.073,-26.373c-13.57,-69.92 -35.673,-102.968 -62.711,-114.485c-17.279,-7.36 -35.067,-4.723 -49.227,-0.696c-18.689,5.315 -32.529,13.649 -36.27,15.208c-13.46,5.606 -29.001,1.814 -38.366,-9.361c-9.365,-11.175 -10.38,-27.14 -2.506,-39.411c15.264,-23.79 29.968,-45.336 39.993,-65.704c7.117,-14.459 12.197,-27.76 10.032,-41.125c-3.151,-19.452 -20.618,-36.084 -54.373,-56.436c-7.672,-4.626 -13.159,-12.145 -15.224,-20.863c-2.065,-8.717 -0.534,-17.899 4.248,-25.475c1.935,-3.066 22.832,-24.515 37.419,-53.965c10.603,-21.404 18.978,-48.445 2.781,-73.421c-8.569,-13.215 -13.524,-21.278 -19.795,-25.669c-3.588,-2.513 -7.703,-2.526 -13.383,-3.175c-8.098,-0.925 -17.928,-1.559 -30.472,-2.725c-10.207,-0.948 -19.41,-6.541 -24.954,-15.163c-5.543,-8.623 -6.811,-19.317 -3.438,-28.997c12.275,-35.222 20.88,-62.674 24.297,-84.86c2.276,-14.777 2.635,-26.139 -2.503,-35.425c-8.159,-14.743 -26.414,-23.176 -54.01,-34.176l-11.187,-6.221l-9.533,-9.562l-6.133,-11.301l-2.771,-10.924c-1.689,-11.889 1.309,-28.756 7.582,-48.154c4.691,-14.506 11.064,-31.406 14.369,-48.817c2.332,-12.289 3.451,-24.956 -1.528,-36.525c-7.28,-16.916 -26.578,-28.97 -62.516,-38.18l-10.302,-3.974l-9.552,-6.855l-7.193,-8.831l-4.357,-9.127c-3.388,-9.609 -3.889,-23.73 -1.242,-40.606c1.757,-11.203 4.727,-24.517 6.018,-38.341c1.175,-12.581 1.7,-26.063 -6.184,-37.029c-5.216,-7.256 -13.987,-12.81 -26.829,-17.229c-29.82,-10.26 -56.289,-31.754 -79.6,-59.027c-29.635,-34.672 -54.396,-78.934 -77.464,-113.454c-8.511,-12.735 -16.617,-23.973 -24.882,-32.052c-0.676,-0.66 -1.485,-1.355 -2.335,-2.038c-0.383,2.507 -0.707,5.123 -0.834,7.401c-1.072,19.295 0.667,43.538 1.926,67.943c2.119,41.104 2.05,82.499 -7.798,108.534c-7.139,18.871 -18.835,31.998 -34.212,39.167c-90.716,42.293 -126.357,78.328 -161.979,113.904c-39.89,39.838 -79.739,79.189 -181.169,124.585c-28.189,12.616 -32.179,45.795 -21.297,78.328c21.733,64.969 102.089,127.992 232.284,112.182c47.631,-5.784 46.468,-5.193 95.109,-10.627c13.514,-1.51 26.591,5.341 33.043,17.311c42.308,78.493 17.631,136.974 -16.143,189.986c-12.069,18.942 -25.354,36.989 -35.241,55.308c-7.166,13.278 -12.727,26.497 -11.825,40.886c1.312,20.923 15.867,42.161 47.491,68.774c12.537,10.55 15.547,28.648 7.099,42.689c-22.032,36.617 -36.937,63.943 -44.848,85.802c-5.055,13.969 -7.4,24.217 -4.11,33.378c5.613,15.627 21.999,26.767 44.791,43.726c13.119,9.761 17.221,27.597 9.683,42.109c-17.03,32.783 -28.337,58.25 -34.431,78.885c-4.43,14.998 -6.124,26.348 -3.799,35.933c1.964,8.096 7.135,14.235 13.796,20.645c10.761,10.354 24.998,20.399 41.718,32.691c12.492,9.184 17.003,25.767 10.883,40.013c-13.998,32.588 -25.163,57.768 -31.449,79.102c-4.454,15.117 -6.484,27.418 -2.897,39.481c5.732,19.277 22.88,36.702 52.149,61.703c8.639,7.379 12.925,18.649 11.371,29.904c-4.412,31.96 -13.301,65.689 4.569,96.87c11.889,20.745 35.451,39.193 76.564,56.628c14.82,6.284 23.031,22.262 19.515,37.97c-1.394,6.224 -7.822,34.441 -3.962,65.779c3.312,26.889 14.569,56.978 48.308,73.003c107.115,50.88 98.192,62.378 156.884,167.455c8.972,16.062 3.215,36.385 -12.846,45.356c-16.062,8.972 -36.385,3.215 -45.356,-12.846c-48.349,-86.56 -39.048,-97.833 -127.286,-139.746c-58.472,-27.774 -80.131,-78.471 -85.871,-125.073c-2.868,-23.29 -1.591,-45.304 0.444,-61.752c-44.187,-22.58 -69.542,-47.988 -84.235,-73.625c-22.453,-39.178 -20.289,-80.821 -15.151,-121.371c-33.829,-30.947 -51.55,-56.204 -58.999,-81.254c-7.01,-23.578 -5.856,-47.778 2.851,-77.325c5.242,-17.793 13.451,-38.087 23.844,-62.528c-32.178,-25.125 -52.63,-46.501 -59.631,-75.363c-7.132,-29.399 -0.39,-69.819 31.477,-136.487c-23.677,-19.87 -38.621,-37.703 -45.677,-57.35c-6.429,-17.901 -7.432,-37.748 -0.921,-62.443c6.041,-22.911 19.521,-51.639 41.648,-90.128c-37.289,-37.423 -49.752,-71.063 -50.351,-101.277c-0.691,-34.803 15.494,-67.176 36.614,-99.543c25.47,-39.032 61.979,-78.581 43.385,-134.353c-25.572,2.753 -32.548,3.315 -70.17,7.884c-202.982,24.649 -308.197,-106.767 -312.337,-203.503c-2.155,-50.365 20.384,-93.586 66.079,-114.037c90.3,-40.415 125.781,-75.44 161.293,-110.906c39.588,-39.536 79.228,-79.536 179.45,-126.47Z"/></g></g></svg>