<?xml version="1.0" encoding="UTF-8" standalone="no"?><!DOCTYPE svg PUBLIC "-//W3C//DTD SVG 1.1//EN" "http://www.w3.org/Graphics/SVG/1.1/DTD/svg11.dtd"><svg width="100%" height="100%" viewBox="0 0 3840 1082" version="1.1" xmlns="http://www.w3.org/2000/svg" xmlns:xlink="http://www.w3.org/1999/xlink" xml:space="preserve" xmlns:serif="http://www.serif.com/" style="fill-rule:evenodd;clip-rule:evenodd;stroke-linecap:round;stroke-linejoin:round;stroke-miterlimit:1.5;"><g><path d="M1087.95,366.652l-73.55,495.831c-20.296,136.828 -147.862,231.437 -284.69,211.141l-495.831,-73.55c-136.828,-20.297 -231.437,-147.862 -211.141,-284.69l73.55,-495.831c20.296,-136.829 147.862,-231.438 284.69,-211.141l495.831,73.549c136.829,20.297 231.438,147.862 211.141,284.691Z" style="fill:#cdcdcd;"/><g><g><g><path d="M1018.05,309.669l0,462.698c0,127.685 -103.664,231.349 -231.349,231.349l-462.698,-0c-127.685,-0 -231.349,-103.664 -231.349,-231.349l-0,-462.698c-0,-127.685 103.664,-231.35 231.349,-231.35l462.698,0c127.685,0 231.349,103.665 231.349,231.35Z" style="fill:#fff;"/><g><g><g><g><path d="M269.224,960.611l76.518,-0.111c0,-0 -0.279,-20.321 0.188,-26.291c0.259,-3.302 0.753,-7.103 2.616,-9.524c1.863,-2.422 5.343,-4.615 8.56,-5.003c6.411,-0.772 29.908,0.368 29.908,0.368l0.286,-54.896c0,-9.041 -7.34,-16.381 -16.381,-16.381l-101.695,-0c-9.041,-0 -16.381,7.34 -16.381,16.381l-0,79.075c-0,9.041 7.34,16.382 16.381,16.382Z" style="fill:none;stroke:#cdcdcd;stroke-width:8.46px;"/><path d="M384.341,917.273c1.669,-1.633 4.35,-1.605 5.983,0.064c1.634,1.67 1.605,4.351 -0.064,5.984l-41.191,40.314c-1.669,1.633 -4.351,1.604 -5.984,-0.065c-1.634,-1.669 -1.605,-4.35 0.064,-5.984l41.192,-40.313Z" style="fill:#cdcdcd;"/></g></g><path d="M335.518,835.105c-0.016,1.38 -1.149,2.487 -2.528,2.472c-1.38,-0.016 -2.488,-1.149 -2.472,-2.529l0.912,-80.394c0.009,-0.811 0.411,-1.567 1.079,-2.029l53.371,-36.852c1.135,-0.784 2.694,-0.498 3.478,0.637c0.784,1.135 0.498,2.694 -0.637,3.478l-52.306,36.117l-0.897,79.1Z" style="fill:#cdcdcd;"/><g><ellipse cx="193.131" cy="705.663" rx="59.712" ry="15.976" style="fill:none;stroke:#cdcdcd;stroke-width:8.39px;"/><path d="M252.843,743.919c-0.067,8.803 -26.797,15.944 -59.712,15.944c-32.956,-0 -59.712,-7.159 -59.712,-15.977c0,-0.032 0.001,-0.065 0.001,-0.098c0.001,-0.016 0.001,-0.032 0.002,-0.049c0,-0.008 0,-0.016 0.001,-0.024" style="fill:none;stroke:#cdcdcd;stroke-width:8.39px;"/><path d="M252.843,782.142c-0.067,8.803 -26.797,15.944 -59.712,15.944c-32.956,-0 -59.712,-7.159 -59.712,-15.977c0,-0.032 0.001,-0.065 0.001,-0.098c0.001,-0.016 0.001,-0.032 0.002,-0.049c0,-0.008 0,-0.016 0.001,-0.024" style="fill:none;stroke:#cdcdcd;stroke-width:8.39px;"/><path d="M252.843,820.365c-0.066,8.803 -26.797,15.943 -59.712,15.943c-32.956,0 -59.712,-7.158 -59.712,-15.976" style="fill:none;stroke:#cdcdcd;stroke-width:8.39px;"/><path d="M129.226,705.663c0,-2.314 1.879,-4.193 4.193,-4.193c2.315,0 4.194,1.879 4.194,4.193l-0,114.669c-0,2.315 -1.879,4.194 -4.194,4.194c-2.314,-0 -4.193,-1.879 -4.193,-4.194l0,-114.669Z" style="fill:#cdcdcd;"/><path d="M248.65,705.663c-0,-2.314 1.878,-4.193 4.193,-4.193c2.314,0 4.193,1.879 4.193,4.193l0,114.669c0,2.315 -1.879,4.194 -4.193,4.194c-2.315,-0 -4.193,-1.879 -4.193,-4.194l-0,-114.669Z" style="fill:#cdcdcd;"/></g><path d="M195.631,677.258c-0.02,1.38 -1.155,2.484 -2.535,2.465c-1.38,-0.02 -2.484,-1.155 -2.465,-2.535l2.495,-177.148c0.013,-0.941 0.553,-1.794 1.397,-2.209l105.415,-51.814c1.238,-0.609 2.738,-0.098 3.346,1.141c0.609,1.238 0.098,2.737 -1.14,3.346l-104.04,51.138l-2.473,175.616Z" style="fill:#cdcdcd;"/><g><g><circle cx="847.028" cy="256.462" r="4.573" style="fill:#cdcdcd;"/><circle cx="858.006" cy="256.462" r="4.573" style="fill:#cdcdcd;"/><circle cx="868.984" cy="256.462" r="4.573" style="fill:#cdcdcd;"/><path d="M990.94,252.173l-0,113.835c-0,4.344 -3.527,7.871 -7.871,7.871l-141.992,-0c-4.344,-0 -7.87,-3.527 -7.87,-7.871l-0,-113.835c-0,-4.344 3.526,-7.87 7.87,-7.87l141.992,-0c4.344,-0 7.871,3.526 7.871,7.87Z" style="fill:none;stroke:#cdcdcd;stroke-width:8.46px;"/><rect x="833.108" y="264.143" width="157.733" height="4.458" style="fill:#cdcdcd;"/><path d="M894.964,282.762l45.06,41.183l-26.57,-0.464l-17.982,20.098l-0.508,-60.817Z" style="fill:#cdcdcd;"/><path d="M925.163,350.333c-1.27,-2.601 -0.74,-2.793 -15.339,-32.767" style="fill:#cdcdcd;"/><path d="M928.966,348.476c1.024,2.099 0.152,4.635 -1.946,5.659c-2.099,1.025 -4.634,0.153 -5.659,-1.945c-1.27,-2.601 -0.74,-2.794 -15.341,-32.771c-1.022,-2.1 -0.148,-4.634 1.952,-5.657c2.099,-1.023 4.634,-0.148 5.657,1.951c14.597,29.97 14.067,30.163 15.337,32.763Z" style="fill:#cdcdcd;"/></g></g><path d="M818.129,306.97c1.379,0.01 2.492,1.137 2.483,2.517c-0.01,1.38 -1.138,2.492 -2.518,2.483l-54.03,-0.369l-73.186,137.832c-0.648,1.218 -2.162,1.683 -3.381,1.035c-1.219,-0.647 -1.683,-2.161 -1.036,-3.38l73.897,-139.17c0.437,-0.822 1.294,-1.334 2.225,-1.327l55.546,0.379Z" style="fill:#cdcdcd;"/><g><g><path d="M833.108,124.713l-0.111,76.518c-0,-0 -20.321,-0.28 -26.29,0.187c-3.303,0.259 -7.104,0.754 -9.525,2.617c-2.421,1.862 -4.615,5.342 -5.002,8.559c-0.773,6.412 0.367,29.908 0.367,29.908l-54.896,0.287c-9.041,-0 -16.381,-7.34 -16.381,-16.381l0,-101.695c0,-9.042 7.34,-16.382 16.381,-16.382l79.076,0c9.041,0 16.381,7.34 16.381,16.382Z" style="fill:none;stroke:#cdcdcd;stroke-width:8.46px;"/><path d="M795.819,245.748c-1.634,1.669 -4.315,1.698 -5.984,0.065c-1.669,-1.634 -1.698,-4.315 -0.065,-5.984l40.314,-41.191c1.633,-1.669 4.315,-1.698 5.984,-0.065c1.669,1.634 1.698,4.315 0.064,5.984l-40.313,41.191Z" style="fill:#cdcdcd;"/></g></g><path d="M708.588,173.377c1.38,0.005 2.496,1.129 2.491,2.509c-0.005,1.38 -1.129,2.496 -2.509,2.491l-84.69,-0.311l-130.768,280.369c-0.583,1.251 -2.072,1.792 -3.322,1.209c-1.251,-0.583 -1.792,-2.072 -1.209,-3.322l131.443,-281.819c0.412,-0.883 1.3,-1.447 2.275,-1.443l86.289,0.317Z" style="fill:#cdcdcd;"/></g></g></g></g><g><path d="M420.667,880.709c12.008,0.76 31.446,-2.739 41.773,-4.83c-1.418,-45.481 1.88,-113.135 5.495,-140.171c0.927,-6.933 2.11,-11.625 3.023,-13.468l2.223,-2.977l2.6,-1.599c10.282,-3.991 19.867,0.363 27.372,8.536c9.026,9.829 14.644,25.004 15.145,28.099c10.818,66.787 14.458,74.395 -2.883,107.98c14.008,1.448 18.024,-0.965 36.032,-1.503c0.482,-2.019 1.19,-5.273 1.493,-8.118c0.889,-8.344 1.158,-19.54 1.076,-31.767c-0.265,-39.285 -4.2,-88.933 -4.229,-91.871c-0.044,-4.415 3.505,-8.035 7.92,-8.079c4.415,-0.044 8.035,3.505 8.079,7.92c0.04,3.949 7,91.625 2.938,126.624c-0.911,7.853 -2.667,13.529 -4.574,16.308l-2.031,2.311l-2.036,1.412l-2.164,0.849l-2.406,0.328c-27.307,0.351 -27.143,4.446 -53.9,-0.248c-2.538,-0.445 -4.707,-2.086 -5.825,-4.408c-1.118,-2.322 -1.049,-5.041 0.185,-7.303c21.319,-39.072 17.325,-41.235 6.531,-107.876c-0.357,-2.206 -4.704,-12.832 -11.136,-19.836c-2.027,-2.207 -4.213,-4.315 -6.718,-4.763c-4.055,21.222 -8.103,101.655 -5.97,149.701c0.172,3.894 -2.487,7.346 -6.296,8.173c-4.367,0.947 -38.674,8.217 -55.505,6.3c-4.798,-0.546 -7.94,-1.826 -9.905,-3.206l-2.922,-2.904l-1.084,-1.94l-0.666,-2.095l-0.183,-3.584l1.124,-4.242c1.356,-3.215 4.506,-7.37 8.576,-12.149c7.326,-8.603 9.408,-12.884 8.738,-27.324c-0.804,-17.348 -5.034,-46.937 -9.9,-106.236c-0.361,-4.401 2.919,-8.267 7.319,-8.628c4.401,-0.361 8.266,2.918 8.628,7.319c4.892,59.615 9.128,89.363 9.936,106.804c0.944,20.351 -2.214,26.313 -12.54,38.439c-1.217,1.429 -2.348,2.77 -3.333,4.022Z"/><path d="M718.276,658.121c0.126,-4.413 3.813,-7.894 8.226,-7.767c4.414,0.127 7.894,3.813 7.767,8.226c-0.929,32.342 6.4,30.686 28.112,67.365c4.908,8.291 15.862,18.408 25.028,31.028c10.439,14.372 18.633,31.63 16.332,52.27c-1.506,13.512 -5.496,23.444 -9.402,32.933c-4.973,12.08 -9.822,23.322 -6.522,42.854c0.736,4.354 -2.202,8.485 -6.555,9.221c-4.354,0.736 -8.486,-2.202 -9.221,-6.555c-3.345,-19.792 0.038,-32.606 4.765,-44.827c4.058,-10.49 9.366,-20.437 11.033,-35.398c1.816,-16.289 -5.137,-29.753 -13.375,-41.095c-9.51,-13.093 -20.76,-23.68 -25.852,-32.28c-24.333,-41.108 -31.378,-39.729 -30.336,-75.975Z"/><path d="M783.311,895.343c-4.412,-0.174 -7.853,-3.897 -7.679,-8.309c0.174,-4.411 3.897,-7.852 8.309,-7.678c17.915,0.706 19.779,2.156 34.127,0.75c9.716,-63.732 13.763,-63.344 17.521,-82.705c9.524,-49.061 -8.405,-81.531 -11.847,-87.719c-2.146,-3.859 -0.755,-8.734 3.103,-10.88c3.859,-2.146 8.734,-0.756 10.88,3.103c3.868,6.955 24.274,43.409 13.571,98.545c-3.844,19.804 -8.017,18.778 -18.319,88.103c-0.529,3.562 -3.373,6.332 -6.948,6.766c-21.448,2.607 -21.276,0.869 -42.718,0.024Z"/><path d="M708.014,861.564c0.909,0.125 1.88,0.232 2.722,0.268c7.86,0.335 18.39,-0.656 26.284,-1.308c22.277,-101.857 21.102,-103.567 22.455,-113.336c0.606,-4.374 4.649,-7.433 9.022,-6.827c4.374,0.606 7.433,4.648 6.827,9.022c-1.393,10.055 -0.11,11.664 -23.953,120.402c-0.771,3.518 -3.799,6.087 -7.395,6.275c-7.409,0.389 -21.163,1.978 -31.563,1.824c-5.534,-0.082 -10.28,-0.738 -13.337,-1.917l-4.038,-2.315l-2.557,-3.032l-1.24,-3.538l0.046,-3.603c3.046,-16.983 12.352,-38.702 17.162,-61.138c4.308,-20.091 5.018,-40.895 -8.428,-58.691c-2.661,-3.522 -1.962,-8.543 1.56,-11.205c3.523,-2.662 8.544,-1.963 11.206,1.56c16.458,21.783 16.58,47.098 11.307,71.691c-4.334,20.209 -12.379,39.822 -16.08,55.868Z"/><path d="M802.64,496.622c-2.797,3.417 -7.842,3.92 -11.258,1.123c-3.417,-2.796 -3.92,-7.841 -1.123,-11.257c25.017,-30.561 64.356,-26.445 79.231,-5.409c9.86,13.945 10.588,36.401 -12.421,62.365c-2.928,3.304 -7.989,3.61 -11.293,0.681c-3.305,-2.928 -3.61,-7.989 -0.681,-11.293c15.92,-17.965 18.154,-32.867 11.331,-42.515c-10.143,-14.345 -36.727,-14.534 -53.786,6.305Z"/><path d="M334.02,289.418c2.668,0.99 4.724,3.375 5.149,6.388c0.674,4.779 -0.419,8.52 -2.281,11.417c-2.691,4.187 -7.306,6.729 -12.162,7.489c-5.452,0.852 -10.894,-0.733 -13.779,-3.121c-0.817,-0.677 -1.506,-1.364 -2.088,-2.046l-1.712,-2.496l-1.129,-2.917l-0.364,-3.079l0.834,-4.42c0.605,-1.621 1.56,-3.229 2.818,-4.741c4.123,-4.952 12.338,-8.937 13.372,-9.413c4.01,-1.848 8.765,-0.092 10.613,3.918c0.452,0.98 0.688,2.005 0.729,3.021Z"/><path d="M664.896,717.695c1.69,-1.574 8.699,-7.789 14.459,-9.894c1.601,-0.586 3.156,-0.921 4.591,-1.014l3.881,0.34l3.458,1.524l2.829,2.674c2.673,3.56 4.292,6.411 5.629,8.764c0.838,1.474 1.324,2.688 2.44,3.592c1.216,0.986 3.035,1.544 6.026,2.276c3.526,0.864 6.744,-1.744 10.085,-4.264c5.542,-4.179 10.821,-9.474 15.535,-12.605c7.52,-4.994 14.399,-5.414 20.127,-0.521c24.673,21.078 55.343,7.769 68.861,-9.545c4.4,-5.636 9.723,-13.179 12.867,-21.374c3.948,-10.291 4.058,-21.801 -8.489,-30.717c-2.457,-1.746 -3.725,-4.725 -3.278,-7.706c0.446,-2.981 2.53,-5.458 5.39,-6.408c1.328,-0.441 5.404,-1.14 9.461,-3.347c2.874,-1.564 5.879,-4.041 6.849,-8.399c3.018,-13.56 -5.78,-19.093 -7.244,-19.953c-2.216,-1.301 -3.671,-3.587 -3.913,-6.144c-0.242,-2.558 0.759,-5.076 2.69,-6.769c3.295,-2.889 6.991,-5.884 9.98,-9.329c3.162,-3.646 5.529,-7.882 4,-13.562c-2.577,-9.567 -12.65,-12.696 -14.134,-13.107c-4.255,-1.178 -6.754,-5.589 -5.576,-9.844c1.178,-4.255 5.589,-6.754 9.844,-5.576c2.705,0.748 20.619,6.927 25.315,24.366c2.673,9.926 0.178,17.885 -4.594,24.681c-2.06,2.933 -4.606,5.623 -7.28,8.15c5.073,5.722 9.901,15.415 6.529,30.564c-2.145,9.639 -8.603,15.314 -14.73,18.703c17.359,22.034 1.292,49.776 -11.075,65.617c-17.853,22.867 -58.274,39.652 -90.998,12.594c-0.519,0.25 -1.245,0.619 -1.75,0.954c-2.381,1.581 -4.9,3.815 -7.552,6.111c-4.986,4.316 -10.367,8.762 -15.814,11.221c-4.903,2.213 -9.914,2.974 -14.912,1.75c-11.21,-2.745 -14.109,-6.095 -17.292,-11.31c-1.058,-1.733 -2.11,-3.851 -3.861,-6.512c-0.616,0.337 -1.274,0.717 -1.76,1.054c-3.53,2.445 -6.51,5.399 -6.609,5.475c-10.786,8.195 -19.346,7.992 -25.647,5.442c-7.255,-2.936 -11.886,-10.075 -14.124,-14.533c-0.972,0.623 -2.171,1.43 -3.069,2.165c-3.043,2.489 -6.287,5.495 -9.633,8.08c-6.611,5.11 -13.786,8.292 -20.612,7.19c-5.843,-0.943 -12.39,-4.962 -18.036,-15.881c-2.962,2.646 -6.154,6.119 -9.079,8.081c-6.838,4.587 -12.906,5.962 -18.238,5.711c-7.744,-0.364 -14.179,-4.388 -19.534,-8.886c-1.719,-1.445 -4.063,-3.365 -5.642,-4.653c-6.621,9.49 -12.522,12.737 -17.931,13.17c-3.822,0.305 -7.822,-0.736 -12.282,-3.213c-4.381,-2.433 -9.573,-6.51 -16.512,-11.18c-1.084,1.93 -2.716,4.754 -4.301,7.175c-4.772,7.288 -9.158,10.021 -19.435,10.707c-7.073,0.472 -18.113,-0.282 -37.264,-0.255c-4.416,0.006 -8.005,-3.574 -8.011,-7.989c-0.006,-4.415 3.573,-8.005 7.989,-8.011c18.615,-0.026 29.345,0.749 36.22,0.29c3.674,-0.245 5.409,-0.901 7.115,-3.506c3.327,-5.083 5.118,-9.289 7.161,-11.522l3.227,-2.601l2.226,-0.967l2.448,-0.488c2.722,-0.244 6.437,0.449 11.441,3.814c5.559,3.737 9.93,7.102 13.665,9.469c1.987,1.259 3.443,2.455 5.038,2.327c0.84,-0.067 1.462,-0.805 2.356,-1.705c1.422,-1.43 2.9,-3.379 4.552,-5.886c1.337,-2.027 2.734,-3.444 4.088,-4.442l2.873,-1.608l3.276,-0.805l2.572,0.012l2.297,0.46c1.652,0.482 3.387,1.334 5.159,2.547c2.492,1.705 5.235,4.35 8.332,6.914c2.746,2.272 5.81,4.724 9.755,4.855c2.504,0.083 5.251,-0.878 8.447,-3.022c2.62,-1.757 5.438,-4.864 8.112,-7.268c3.001,-2.7 6.018,-4.67 8.514,-5.423l2.213,-0.455l2.608,0.02l3.653,1.162l2.935,2.279l1.5,1.997l1.039,2.043c1.703,4.047 3.387,6.993 5.186,8.982c0.917,1.015 1.748,1.723 2.69,1.931c1.6,0.355 3.113,-0.547 4.699,-1.474c3.058,-1.787 6.028,-4.399 8.883,-6.867c5.395,-4.663 10.668,-8.695 15.036,-9.822l3.785,-0.475l4.197,0.743l3.803,2.127l2.858,3.004c0.051,0.07 0.965,2.405 2.62,5.4c1.137,2.056 2.844,5.092 5.993,5.706c2.387,0.466 5.173,-0.67 8.804,-3.376Z"/><path d="M509.893,513.39c-1.087,4.279 -5.444,6.87 -9.724,5.783c-4.279,-1.088 -6.87,-5.445 -5.783,-9.724c0.325,-1.277 2.518,-14.017 7.886,-25.248c4.353,-9.108 10.901,-16.968 19.285,-19.732c9.111,-3.004 16.288,-2.276 21.897,-0.025c5.146,2.066 9.006,5.594 11.835,9.244c4.317,-5.526 8.204,-9.618 11.77,-12.492c4.752,-3.828 9.19,-5.76 13.373,-6.387c7.479,-1.122 14.802,2.099 22.777,9.152c3.344,-4.422 6.588,-8.055 9.812,-10.73c4.325,-3.589 8.751,-5.645 13.298,-6.211c4.743,-0.591 9.74,0.365 15.087,3.542c4.324,2.57 9.077,6.836 14.314,13.202c1.294,-1.479 2.728,-2.963 4.296,-4.297c6.676,-5.678 15.266,-8.988 25.669,-4.2c10.852,4.996 17.45,13.051 21.336,19.788c4.608,-4.022 8.749,-6.909 12.554,-8.733c5.239,-2.51 10.077,-3.25 14.733,-2.54c4.501,0.687 8.93,2.772 13.401,6.554c3.881,3.284 7.927,8.028 12.352,14.282c3.845,-2.529 7.7,-4.664 11.506,-5.891c5.36,-1.727 10.693,-1.863 15.971,0.218c6.217,2.453 12.89,8.542 18.975,21.328c4.652,-0.842 8.258,-1.607 11.35,-1.938c4.016,-0.43 7.407,-0.232 10.788,0.811c4.89,1.508 9.973,4.975 17.199,12.669c7.611,8.106 7.758,14.965 5.362,22.955c-1.079,3.596 -2.902,7.534 -4.5,12.28c-1.409,4.184 -5.95,6.438 -10.134,5.029c-4.185,-1.409 -6.438,-5.95 -5.03,-10.134c1.533,-4.552 3.304,-8.322 4.338,-11.77c0.772,-2.576 0.754,-4.794 -1.7,-7.407c-4.469,-4.758 -7.227,-7.4 -10.251,-8.333c-1.882,-0.581 -3.777,-0.32 -6.206,0.054c-3.83,0.588 -8.504,1.648 -14.847,2.616c-3.679,0.561 -7.259,-1.489 -8.638,-4.946c-4.309,-10.81 -8.031,-16.536 -12.578,-18.33c-2.339,-0.923 -4.678,-0.21 -7.059,0.849c-3.96,1.762 -7.9,4.696 -11.858,7.62c-1.776,1.313 -4.017,1.832 -6.189,1.436c-2.173,-0.396 -4.086,-1.673 -5.284,-3.529c-4.429,-6.854 -8.29,-12.176 -12.002,-15.895c-2.567,-2.571 -4.838,-4.323 -7.379,-4.711c-2.347,-0.358 -4.704,0.601 -7.461,2.274c-4.228,2.565 -8.89,6.748 -14.413,12.45c-1.98,2.044 -4.898,2.883 -7.662,2.201c-2.763,-0.681 -4.957,-2.78 -5.76,-5.511c-0.622,-2.116 -4.338,-15.105 -17.605,-21.212c-3.522,-1.621 -6.35,-0.07 -8.61,1.853c-4.11,3.496 -7.001,8.315 -8.824,10.406c-1.619,1.857 -4.004,2.865 -6.465,2.731c-2.46,-0.134 -4.722,-1.394 -6.13,-3.416c-5.168,-7.419 -9.631,-12.585 -13.761,-15.718c-2.558,-1.941 -4.726,-3.032 -6.909,-2.76c-2.409,0.3 -4.516,1.985 -6.809,4.239c-3.424,3.366 -6.835,8.039 -10.527,13.596c-1.362,2.049 -3.591,3.358 -6.045,3.548c-2.454,0.19 -4.858,-0.759 -6.52,-2.575c-3.68,-4.022 -6.936,-7.284 -10.141,-9.362c-1.846,-1.198 -3.563,-1.994 -5.448,-1.711c-2.472,0.37 -4.901,2.112 -7.834,4.894c-4.131,3.92 -8.693,9.737 -14.052,17.719c-1.72,2.561 -4.758,3.905 -7.81,3.455c-3.052,-0.45 -5.572,-2.615 -6.479,-5.563c-0.389,-1.267 -2.413,-9.146 -9.135,-11.844c-2.801,-1.124 -6.379,-1.129 -10.929,0.371c-4.587,1.513 -7.476,6.452 -9.858,11.436c-4.73,9.897 -6.529,21.164 -6.815,22.29Z"/><path d="M332.369,241.536c0.137,-0.287 0.478,-1.022 0.621,-1.532c0.441,-1.569 0.658,-3.407 0.78,-5.404c0.385,-6.286 -0.254,-13.856 -0.565,-20.701c-0.36,-7.936 -0.107,-15.066 1.488,-19.403c0.332,-0.903 0.715,-1.729 1.139,-2.475l1.786,-2.47l1.657,-1.512l2.02,-1.234c7.785,-3.738 15.675,-0.796 22.97,8.137c5.205,6.373 10.566,16.166 16.789,25.141c5.062,7.302 10.543,14.251 17.681,16.707c7.141,2.457 11.583,6.135 14.414,10.191c4.198,6.017 4.891,13.195 4.176,20.034c-0.322,3.084 -0.911,6.062 -1.357,8.678c-0.041,0.241 -0.081,0.501 -0.119,0.768c10.509,3.392 16.469,8.383 19.827,13.649c5.793,9.085 4.191,19.992 1.221,29.438c-0.809,2.572 -1.811,5.976 -2.45,8.171c9.128,4.074 14.606,8.501 17.57,13.857c2.265,4.093 3.262,8.839 2.86,14.755c-0.325,4.771 -1.648,10.534 -3.854,17.68c3.533,0.611 5.968,1.47 8.282,3.089c2.683,1.88 5.329,4.905 8.997,10.561c6.013,9.273 5.625,19.152 2.61,27.828c-1.725,4.961 -4.808,10.032 -7.465,13.868c8.531,6.673 12.226,13.305 13.26,19.69c0.839,5.176 -0.028,10.442 -2.237,15.915c-0.47,1.163 -1.006,2.341 -1.597,3.535c4.064,-0.129 8.387,0.441 12.633,2.25c9.564,4.074 19.687,14.414 24.487,39.148c0.841,4.334 -1.995,8.536 -6.329,9.378c-4.335,0.841 -8.537,-1.995 -9.378,-6.33c-3.256,-16.781 -8.561,-24.712 -15.05,-27.476c-4.147,-1.767 -8.416,-1.134 -11.815,-0.167c-4.485,1.275 -7.807,3.275 -8.705,3.65c-3.23,1.345 -6.96,0.435 -9.207,-2.247c-2.248,-2.682 -2.492,-6.514 -0.602,-9.459c3.664,-5.709 7.193,-10.88 9.598,-15.769c1.709,-3.47 2.928,-6.662 2.408,-9.87c-0.756,-4.668 -4.948,-8.66 -13.049,-13.544c-1.842,-1.11 -3.159,-2.915 -3.654,-5.007c-0.496,-2.093 -0.128,-4.296 1.019,-6.114c0.465,-0.736 5.48,-5.884 8.981,-12.952c2.545,-5.137 4.555,-11.627 0.667,-17.621c-2.056,-3.172 -3.245,-5.107 -4.75,-6.161c-0.862,-0.603 -1.849,-0.606 -3.212,-0.762c-1.944,-0.222 -4.303,-0.374 -7.314,-0.654c-2.449,-0.227 -4.658,-1.569 -5.989,-3.639c-1.33,-2.069 -1.634,-4.636 -0.825,-6.959c2.946,-8.453 5.012,-15.042 5.832,-20.366c0.546,-3.547 0.632,-6.274 -0.601,-8.502c-1.958,-3.539 -6.34,-5.563 -12.962,-8.203l-2.685,-1.493l-2.288,-2.295l-1.472,-2.712l-0.665,-2.621c-0.406,-2.854 0.314,-6.902 1.819,-11.558c1.126,-3.481 2.656,-7.537 3.449,-11.716c0.56,-2.949 0.828,-5.989 -0.367,-8.766c-1.747,-4.059 -6.379,-6.952 -15.004,-9.163l-2.472,-0.954l-2.293,-1.645l-1.726,-2.119l-1.046,-2.191c-0.813,-2.306 -0.933,-5.695 -0.298,-9.745c0.422,-2.689 1.135,-5.884 1.445,-9.202c0.282,-3.019 0.408,-6.255 -1.484,-8.887c-1.252,-1.741 -3.357,-3.074 -6.439,-4.135c-7.157,-2.462 -13.51,-7.621 -19.105,-14.166c-7.112,-8.322 -13.055,-18.945 -18.591,-27.229c-2.042,-3.057 -3.988,-5.754 -5.971,-7.693c-0.163,-0.158 -0.357,-0.325 -0.561,-0.489c-0.092,0.602 -0.17,1.23 -0.2,1.776c-0.257,4.631 0.16,10.449 0.462,16.307c0.509,9.865 0.492,19.799 -1.871,26.048c-1.714,4.529 -4.521,7.679 -8.211,9.4c-21.772,10.15 -30.326,18.799 -38.875,27.337c-9.574,9.561 -19.137,19.005 -43.481,29.9c-6.765,3.028 -7.723,10.991 -5.111,18.799c5.216,15.592 24.501,30.718 55.748,26.924c11.432,-1.389 11.152,-1.247 22.826,-2.551c3.244,-0.362 6.382,1.282 7.931,4.155c10.154,18.838 4.231,32.874 -3.875,45.596c-2.896,4.547 -6.085,8.878 -8.457,13.274c-1.72,3.187 -3.055,6.36 -2.839,9.813c0.315,5.022 3.809,10.119 11.398,16.506c3.009,2.532 3.732,6.875 1.704,10.245c-5.288,8.788 -8.865,15.346 -10.763,20.593c-1.214,3.352 -1.776,5.812 -0.987,8.01c1.347,3.751 5.28,6.425 10.75,10.494c3.149,2.343 4.133,6.624 2.324,10.107c-4.087,7.868 -6.801,13.98 -8.264,18.932c-1.063,3.6 -1.469,6.324 -0.911,8.624c0.471,1.943 1.712,3.416 3.311,4.955c2.582,2.485 5.999,4.896 10.012,7.846c2.998,2.204 4.081,6.184 2.612,9.603c-3.359,7.821 -6.039,13.864 -7.548,18.984c-1.069,3.628 -1.556,6.581 -0.695,9.476c1.376,4.626 5.491,8.808 12.516,14.808c2.073,1.771 3.102,4.476 2.729,7.177c-1.059,7.671 -3.192,15.766 1.096,23.249c2.854,4.979 8.508,9.407 18.376,13.591c3.556,1.508 5.527,5.343 4.683,9.113c-0.334,1.493 -1.877,8.266 -0.951,15.787c0.795,6.453 3.497,13.674 11.594,17.521c25.708,12.211 23.566,14.97 37.653,40.189c2.153,3.854 0.771,8.732 -3.084,10.885c-3.854,2.153 -8.732,0.772 -10.885,-3.083c-11.604,-20.774 -9.371,-23.48 -30.549,-33.539c-14.033,-6.666 -19.231,-18.833 -20.609,-30.017c-0.688,-5.59 -0.381,-10.873 0.107,-14.821c-10.605,-5.419 -16.69,-11.517 -20.217,-17.67c-5.388,-9.403 -4.869,-19.397 -3.636,-29.129c-8.119,-7.427 -12.372,-13.489 -14.159,-19.501c-1.683,-5.659 -1.406,-11.467 0.684,-18.558c1.258,-4.27 3.228,-9.141 5.722,-15.007c-7.722,-6.03 -12.631,-11.16 -14.311,-18.087c-1.712,-7.056 -0.094,-16.757 7.554,-32.757c-5.682,-4.769 -9.269,-9.048 -10.962,-13.764c-1.543,-4.296 -1.784,-9.059 -0.221,-14.986c1.45,-5.499 4.685,-12.393 9.995,-21.631c-8.949,-8.981 -11.94,-17.055 -12.084,-24.306c-0.166,-8.353 3.718,-16.122 8.787,-23.891c6.113,-9.367 14.875,-18.859 10.413,-32.244c-6.138,0.66 -7.812,0.795 -16.841,1.892c-48.716,5.916 -73.967,-25.624 -74.961,-48.841c-0.517,-12.088 4.892,-22.46 15.859,-27.369c21.672,-9.699 30.187,-18.105 38.71,-26.617c9.501,-9.489 19.015,-19.089 43.069,-30.353Z"/></g></g></g><g><g><g><rect x="1221.51" y="217.399" width="63.505" height="403.194" style="fill:#fff;"/><rect x="1221.51" y="552.333" width="222.874" height="68.259" style="fill:#fff;"/></g><g><rect x="1469.01" y="217.399" width="63.505" height="403.194" style="fill:#fff;"/><rect x="1469.01" y="552.333" width="222.874" height="68.259" style="fill:#fff;"/></g><g><path d="M1973.18,217.399l-181.37,403.194l-75.304,-0l180.097,-403.194l76.577,-0Z" style="fill:#fff;"/><path d="M1896.61,217.399l181.25,403.194l75.303,-0l-179.976,-403.194l-76.577,-0Z" style="fill:#fff;"/><path d="M1952.49,482.968l31.025,65.123l-164.368,0.572l29.549,-65.69l103.794,-0.005Z" style="fill:#fff;"/></g><g><rect x="2177.78" y="217.399" width="69.209" height="403.194" style="fill:#fff;"/><rect x="2512.99" y="217.399" width="69.209" height="403.194" style="fill:#fff;"/><path d="M2580.65,217.399l-200.657,316.513l-38.145,-59.707l171.145,-256.806l67.657,-0Z" style="fill:#fff;"/><path d="M2177.78,217.399l202.209,316.513l35.458,-55.93l-168.714,-260.583l-68.953,-0Z" style="fill:#fff;"/></g><g><path d="M2863.5,217.399l-181.37,403.194l-75.303,-0l180.097,-403.194l76.576,-0Z" style="fill:#fff;"/><path d="M2786.92,217.399l181.249,403.194l75.304,-0l-179.977,-403.194l-76.576,-0Z" style="fill:#fff;"/><path d="M2842.81,482.968l31.025,65.123l-164.368,0.572l29.549,-65.69l103.794,-0.005Z" style="fill:#fff;"/></g><g><path d="M3276.75,494.777l85.789,125.816l-80.859,-0l-70.201,-110.152l65.271,-15.664Z" style="fill:#fff;"/><path d="M3068.1,217.399l142.708,-0c80.867,-0 146.521,65.654 146.521,146.521c-0,80.867 -65.654,146.521 -146.521,146.521c-29.079,-0 -46.692,-3.16 -46.692,-3.16l24.652,-66.887c0,0 -2.533,0.402 27.597,0.402c46.893,0 79.407,-29.983 79.407,-76.876c0,-46.893 -37.717,-84.274 -84.611,-84.274c-14.796,0 -143.061,0.139 -143.061,0.139l0,-62.386Z" style="fill:#fff;"/><rect x="3068.1" y="217.399" width="68.143" height="403.194" style="fill:#fff;"/></g><g><path d="M3640.02,217.399l-181.371,403.194l-75.303,-0l180.097,-403.194l76.577,-0Z" style="fill:#fff;"/><path d="M3563.45,217.399l181.25,403.194l75.303,-0l-179.976,-403.194l-76.577,-0Z" style="fill:#fff;"/><path d="M3619.33,482.968l31.024,65.123l-164.368,0.572l29.55,-65.69l103.794,-0.005Z" style="fill:#fff;"/></g></g><path d="M1288.71,828.486c25.738,-0 41.652,-12.378 52.065,-27.703l-16.7,-8.841c-6.877,11.002 -19.844,19.058 -35.365,19.058c-26.524,-0 -46.957,-21.023 -46.957,-50.297c-0,-29.471 20.433,-50.298 46.957,-50.298c15.521,0 28.488,8.056 35.365,19.058l16.7,-8.841c-10.217,-15.325 -26.327,-27.703 -52.065,-27.703c-37.33,0 -67.194,27.507 -67.194,67.784c-0,40.277 29.864,67.783 67.194,67.783Z" style="fill:#fff;fill-rule:nonzero;"/><path d="M1424.08,826.128l17.683,0l0,-66.997c0,-20.04 -10.217,-30.257 -30.453,-30.257c-14.539,-0 -27.31,8.055 -33.597,15.718l-0,-49.511l-17.683,-0l0,131.047l17.683,0l-0,-67.783c5.108,-7.073 15.128,-13.753 26.131,-13.753c12.181,-0 20.236,4.715 20.236,20.433l0,61.103Z" style="fill:#fff;fill-rule:nonzero;"/><path d="M1528.6,826.128l17.683,0l-0,-64.05c-0,-24.166 -17.486,-33.204 -38.116,-33.204c-15.325,-0 -28.292,5.108 -38.902,15.521l7.663,12.182c8.448,-8.449 17.682,-12.575 28.488,-12.575c13.557,0 23.184,7.073 23.184,18.862l0,15.718c-7.269,-8.449 -18.272,-12.575 -31.043,-12.575c-15.914,0 -33.007,9.431 -33.007,31.043c-0,20.826 17.29,31.436 33.007,31.436c12.771,-0 23.577,-4.519 31.043,-12.771l0,10.413Zm0,-20.826c-5.305,7.073 -14.539,10.806 -24.363,10.806c-12.77,-0 -21.808,-7.662 -21.808,-18.861c-0,-11.199 9.038,-18.862 21.808,-18.862c9.824,0 19.058,3.733 24.363,10.806l0,16.111Z" style="fill:#fff;fill-rule:nonzero;"/><path d="M1600.7,828.486c9.234,-0 14.735,-2.554 18.468,-6.091l-4.519,-13.36c-1.768,1.965 -5.501,3.733 -9.627,3.733c-6.091,-0 -9.234,-4.912 -9.234,-11.592l-0,-54.423l19.254,-0l0,-15.521l-19.254,-0l-0,-25.935l-17.683,0l0,25.935l-15.718,-0l0,15.521l15.718,-0l0,58.352c0,14.932 7.663,23.381 22.595,23.381Z" style="fill:#fff;fill-rule:nonzero;"/><path d="M1767.71,826.128l18.272,0l29.864,-94.896l-18.469,-0l-21.612,72.302l-23.773,-72.302l-15.325,-0l-23.773,72.302l-21.612,-72.302l-18.469,-0l29.864,94.896l18.272,0l23.38,-72.891l23.381,72.891Z" style="fill:#fff;fill-rule:nonzero;"/><path d="M1840.2,715.317c6.287,0 11.396,-4.912 11.396,-11.199c-0,-6.287 -5.109,-11.395 -11.396,-11.395c-6.09,-0 -11.395,5.108 -11.395,11.395c-0,6.287 5.305,11.199 11.395,11.199Zm-8.644,110.811l17.682,0l0,-94.896l-17.682,-0l-0,94.896Z" style="fill:#fff;fill-rule:nonzero;"/><path d="M1903.47,828.486c9.234,-0 14.735,-2.554 18.468,-6.091l-4.519,-13.36c-1.768,1.965 -5.501,3.733 -9.627,3.733c-6.091,-0 -9.234,-4.912 -9.234,-11.592l-0,-54.423l19.254,-0l0,-15.521l-19.254,-0l-0,-25.935l-17.683,0l0,25.935l-15.718,-0l0,15.521l15.718,-0l0,58.352c0,14.932 7.663,23.381 22.595,23.381Z" style="fill:#fff;fill-rule:nonzero;"/><path d="M2001.51,826.128l17.682,0l0,-66.997c0,-20.04 -10.216,-30.257 -30.453,-30.257c-14.539,-0 -27.31,8.055 -33.597,15.718l0,-49.511l-17.683,-0l0,131.047l17.683,0l0,-67.783c5.108,-7.073 15.128,-13.753 26.131,-13.753c12.181,-0 20.237,4.715 20.237,20.433l-0,61.103Z" style="fill:#fff;fill-rule:nonzero;"/><path d="M2096.21,847.347l-2.751,15.914c2.751,0.786 8.055,1.376 11.003,1.376c13.753,-0.197 24.166,-5.501 30.256,-20.433l46.761,-112.972l-19.058,-0l-29.667,74.463l-29.668,-74.463l-18.861,-0l39.098,95.878l-5.501,12.575c-2.947,7.073 -7.27,9.234 -13.753,9.234c-2.358,-0 -5.698,-0.589 -7.859,-1.572Z" style="fill:#fff;fill-rule:nonzero;"/><path d="M2237.87,828.486c29.667,-0 47.939,-22.398 47.939,-49.904c0,-27.31 -18.272,-49.708 -47.939,-49.708c-29.471,-0 -47.94,22.398 -47.94,49.708c0,27.506 18.469,49.904 47.94,49.904Zm-0,-15.718c-18.862,-0 -29.471,-16.111 -29.471,-34.186c-0,-17.879 10.609,-33.99 29.471,-33.99c19.058,-0 29.471,16.111 29.471,33.99c-0,18.075 -10.413,34.186 -29.471,34.186Z" style="fill:#fff;fill-rule:nonzero;"/><path d="M2372.25,826.128l17.683,0l-0,-94.896l-17.683,-0l0,68.176c-5.305,7.073 -15.325,13.36 -26.327,13.36c-12.181,-0 -20.04,-4.715 -20.04,-20.433l-0,-61.103l-17.683,-0l0,66.997c0,20.04 10.02,30.257 30.257,30.257c14.539,-0 26.524,-7.466 33.793,-15.325l0,12.967Z" style="fill:#fff;fill-rule:nonzero;"/><path d="M2418.03,826.128l17.683,0l0,-66.015c4.126,-7.073 16.111,-13.753 24.952,-13.753c2.358,0 4.323,0.197 6.091,0.589l-0,-17.879c-12.575,0 -23.773,7.27 -31.043,16.701l0,-14.539l-17.683,-0l0,94.896Z" style="fill:#fff;fill-rule:nonzero;"/><path d="M2602.72,826.128l17.683,0l-0,-131.047l-17.683,-0l0,49.904c-7.662,-10.217 -18.861,-16.111 -31.043,-16.111c-24.755,-0 -42.438,19.451 -42.438,49.904c0,31.043 17.683,49.708 42.438,49.708c12.575,-0 23.97,-6.484 31.043,-15.915l0,13.557Zm0,-27.113c-4.912,7.662 -15.521,13.753 -26.327,13.753c-17.683,-0 -28.685,-14.343 -28.685,-33.99c-0,-19.844 11.002,-34.186 28.685,-34.186c10.806,-0 21.415,6.287 26.327,13.949l0,40.474Z" style="fill:#fff;fill-rule:nonzero;"/><path d="M2707.24,826.128l17.682,0l0,-64.05c0,-24.166 -17.486,-33.204 -38.115,-33.204c-15.325,-0 -28.293,5.108 -38.902,15.521l7.662,12.182c8.449,-8.449 17.683,-12.575 28.489,-12.575c13.557,0 23.184,7.073 23.184,18.862l-0,15.718c-7.27,-8.449 -18.272,-12.575 -31.043,-12.575c-15.914,0 -33.007,9.431 -33.007,31.043c-0,20.826 17.289,31.436 33.007,31.436c12.771,-0 23.577,-4.519 31.043,-12.771l-0,10.413Zm-0,-20.826c-5.305,7.073 -14.539,10.806 -24.363,10.806c-12.771,-0 -21.808,-7.662 -21.808,-18.861c-0,-11.199 9.037,-18.862 21.808,-18.862c9.824,0 19.058,3.733 24.363,10.806l-0,16.111Z" style="fill:#fff;fill-rule:nonzero;"/><path d="M2779.35,828.486c9.235,-0 14.736,-2.554 18.469,-6.091l-4.519,-13.36c-1.768,1.965 -5.501,3.733 -9.627,3.733c-6.091,-0 -9.235,-4.912 -9.235,-11.592l0,-54.423l19.255,-0l-0,-15.521l-19.255,-0l0,-25.935l-17.682,0l-0,25.935l-15.718,-0l0,15.521l15.718,-0l-0,58.352c-0,14.932 7.662,23.381 22.594,23.381Z" style="fill:#fff;fill-rule:nonzero;"/><path d="M2871.89,826.128l17.683,0l-0,-64.05c-0,-24.166 -17.486,-33.204 -38.116,-33.204c-15.325,-0 -28.292,5.108 -38.902,15.521l7.663,12.182c8.448,-8.449 17.682,-12.575 28.488,-12.575c13.557,0 23.184,7.073 23.184,18.862l0,15.718c-7.269,-8.449 -18.272,-12.575 -31.043,-12.575c-15.914,0 -33.007,9.431 -33.007,31.043c-0,20.826 17.29,31.436 33.007,31.436c12.771,-0 23.577,-4.519 31.043,-12.771l0,10.413Zm0,-20.826c-5.305,7.073 -14.539,10.806 -24.363,10.806c-12.77,-0 -21.808,-7.662 -21.808,-18.861c-0,-11.199 9.038,-18.862 21.808,-18.862c9.824,0 19.058,3.733 24.363,10.806l0,16.111Z" style="fill:#fff;fill-rule:nonzero;"/></g></svg>