<?xml version="1.0" encoding="UTF-8" standalone="no"?><!DOCTYPE svg PUBLIC "-//W3C//DTD SVG 1.1//EN" "http://www.w3.org/Graphics/SVG/1.1/DTD/svg11.dtd"><svg width="100%" height="100%" viewBox="0 0 16000 4509" version="1.1" xmlns="http://www.w3.org/2000/svg" xmlns:xlink="http://www.w3.org/1999/xlink" xml:space="preserve" xmlns:serif="http://www.serif.com/" style="fill-rule:evenodd;clip-rule:evenodd;stroke-linecap:round;stroke-linejoin:round;stroke-miterlimit:1.5;"><g><path d="M4533.14,1527.72l-306.456,2065.96c-84.569,570.118 -616.092,964.322 -1186.21,879.753l-2065.96,-306.457c-570.118,-84.569 -964.322,-616.092 -879.753,-1186.21l306.456,-2065.96c84.569,-570.118 616.092,-964.322 1186.21,-879.753l2065.96,306.457c570.118,84.569 964.322,616.092 879.753,1186.21Z" style="fill:#cdcdcd;"/><g><g><g><path d="M4241.86,1290.29l0,1927.91c0,532.021 -431.933,963.955 -963.954,963.955l-1927.91,-0c-532.021,-0 -963.954,-431.934 -963.954,-963.955l-0,-1927.91c-0,-532.021 431.933,-963.955 963.954,-963.955l1927.91,0c532.021,0 963.954,431.934 963.954,963.955Z" style="fill:#fff;"/><g><g><g><g><path d="M1121.77,4002.54l318.827,-0.463c-0,0 -1.166,-84.67 0.781,-109.542c1.077,-13.76 3.139,-29.599 10.9,-39.687c7.762,-10.088 22.262,-19.228 35.667,-20.843c26.714,-3.218 124.616,1.532 124.616,1.532l1.193,-228.733c0,-37.671 -30.584,-68.255 -68.255,-68.255l-423.729,-0c-37.671,-0 -68.255,30.584 -68.255,68.255l-0,329.481c-0,37.671 30.584,68.255 68.255,68.255Z" style="fill:none;stroke:#cdcdcd;stroke-width:35.26px;"/><path d="M1601.42,3821.97c6.955,-6.806 18.127,-6.686 24.933,0.269c6.806,6.954 6.686,18.126 -0.269,24.932l-171.63,167.972c-6.954,6.807 -18.126,6.686 -24.932,-0.268c-6.807,-6.955 -6.686,-18.126 0.268,-24.933l171.63,-167.972Z" style="fill:#cdcdcd;"/></g></g><path d="M1397.99,3479.6c-0.066,5.749 -4.786,10.363 -10.534,10.298c-5.749,-0.065 -10.364,-4.785 -10.298,-10.534l3.797,-334.975c0.039,-3.381 1.716,-6.532 4.498,-8.453l222.379,-153.552c4.731,-3.266 11.224,-2.077 14.49,2.653c3.267,4.731 2.078,11.224 -2.653,14.491l-217.943,150.488l-3.736,329.584Z" style="fill:#cdcdcd;"/><g><ellipse cx="804.713" cy="2940.26" rx="248.799" ry="66.567" style="fill:none;stroke:#cdcdcd;stroke-width:34.94px;"/><path d="M1053.51,3099.66c-0.276,36.677 -111.653,66.431 -248.798,66.431c-137.316,-0 -248.799,-29.828 -248.799,-66.567c-0,-0.137 0.001,-0.273 0.005,-0.409c0.001,-0.068 0.003,-0.136 0.005,-0.204c0.001,-0.034 0.003,-0.068 0.004,-0.102" style="fill:none;stroke:#cdcdcd;stroke-width:34.94px;"/><path d="M1053.51,3258.93c-0.276,36.676 -111.653,66.43 -248.798,66.43c-137.316,0 -248.799,-29.827 -248.799,-66.567c-0,-0.136 0.001,-0.272 0.005,-0.408c0.001,-0.068 0.003,-0.137 0.005,-0.205c0.001,-0.034 0.003,-0.068 0.004,-0.102" style="fill:none;stroke:#cdcdcd;stroke-width:34.94px;"/><path d="M1053.51,3418.19c-0.276,36.677 -111.653,66.431 -248.799,66.431c-137.315,-0 -248.799,-29.828 -248.799,-66.568" style="fill:none;stroke:#cdcdcd;stroke-width:34.94px;"/><path d="M538.442,2940.26c0,-9.643 7.829,-17.472 17.472,-17.472c9.644,0 17.473,7.829 17.473,17.472l-0,477.787c-0,9.644 -7.829,17.473 -17.473,17.473c-9.643,-0 -17.472,-7.829 -17.472,-17.473l0,-477.787Z" style="fill:#cdcdcd;"/><path d="M1036.04,2940.26c-0,-9.643 7.829,-17.472 17.472,-17.472c9.643,0 17.472,7.829 17.472,17.472l0,477.787c0,9.644 -7.829,17.473 -17.472,17.473c-9.643,-0 -17.472,-7.829 -17.472,-17.473l-0,-477.787Z" style="fill:#cdcdcd;"/></g><path d="M815.129,2821.91c-0.081,5.748 -4.814,10.35 -10.563,10.269c-5.748,-0.081 -10.35,-4.814 -10.269,-10.563l10.394,-738.118c0.055,-3.917 2.304,-7.473 5.82,-9.201l439.23,-215.894c5.16,-2.536 11.408,-0.406 13.944,4.754c2.536,5.159 0.406,11.407 -4.754,13.943l-433.499,213.077l-10.303,731.733Z" style="fill:#cdcdcd;"/><g><g><circle cx="3529.28" cy="1068.59" r="19.053" style="fill:#cdcdcd;"/><circle cx="3575.02" cy="1068.59" r="19.053" style="fill:#cdcdcd;"/><circle cx="3620.77" cy="1068.59" r="19.053" style="fill:#cdcdcd;"/><path d="M4128.91,1050.72l0,474.312c0,18.099 -14.694,32.794 -32.794,32.794l-591.633,-0c-18.099,-0 -32.794,-14.695 -32.794,-32.794l0,-474.312c0,-18.099 14.695,-32.794 32.794,-32.794l591.633,0c18.1,0 32.794,14.695 32.794,32.794Z" style="fill:none;stroke:#cdcdcd;stroke-width:35.26px;"/><rect x="3471.28" y="1100.59" width="657.221" height="18.576" style="fill:#cdcdcd;"/><path d="M3729.01,1178.17l187.752,171.598l-110.708,-1.934l-74.925,83.744l-2.119,-253.408Z" style="fill:#cdcdcd;"/><path d="M3854.85,1459.72c-5.292,-10.837 -3.083,-11.64 -63.912,-136.529" style="fill:#cdcdcd;"/><path d="M3870.69,1451.99c4.27,8.744 0.637,19.31 -8.107,23.579c-8.744,4.27 -19.309,0.637 -23.579,-8.106c-5.292,-10.839 -3.084,-11.642 -63.92,-136.546c-4.261,-8.748 -0.618,-19.31 8.131,-23.571c8.748,-4.261 19.31,-0.618 23.571,8.131c60.822,124.875 58.613,125.678 63.904,136.513Z" style="fill:#cdcdcd;"/></g></g><path d="M3408.87,1279.04c5.749,0.04 10.385,4.739 10.346,10.488c-0.04,5.749 -4.739,10.385 -10.488,10.345l-225.128,-1.537l-304.943,574.299c-2.696,5.078 -9.007,7.011 -14.085,4.315c-5.077,-2.696 -7.011,-9.008 -4.315,-14.085l307.903,-579.874c1.819,-3.426 5.392,-5.558 9.271,-5.531l231.439,1.58Z" style="fill:#cdcdcd;"/><g><g><path d="M3471.28,519.635l-0.462,318.827c-0,0 -84.671,-1.166 -109.542,0.781c-13.761,1.078 -29.599,3.14 -39.688,10.901c-10.088,7.761 -19.227,22.262 -20.842,35.666c-3.219,26.714 1.532,124.617 1.532,124.617l-228.734,1.193c-37.671,-0 -68.255,-30.584 -68.255,-68.255l0,-423.73c0,-37.671 30.584,-68.255 68.255,-68.255l329.481,0c37.671,0 68.255,30.584 68.255,68.255Z" style="fill:none;stroke:#cdcdcd;stroke-width:35.26px;"/><path d="M3315.91,1023.95c-6.806,6.954 -17.978,7.074 -24.932,0.268c-6.954,-6.806 -7.075,-17.978 -0.269,-24.932l167.973,-171.63c6.806,-6.955 17.978,-7.075 24.932,-0.269c6.955,6.806 7.075,17.978 0.269,24.932l-167.973,171.631Z" style="fill:#cdcdcd;"/></g></g><path d="M2952.45,722.404c5.749,0.021 10.4,4.706 10.379,10.455c-0.021,5.749 -4.706,10.4 -10.455,10.378l-352.877,-1.296l-544.863,1168.2c-2.43,5.21 -8.633,7.468 -13.844,5.037c-5.21,-2.43 -7.467,-8.633 -5.037,-13.843l547.68,-1174.24c1.716,-3.681 5.416,-6.028 9.478,-6.014l359.539,1.321Z" style="fill:#cdcdcd;"/></g></g></g></g><g><path d="M1752.78,3669.62c50.033,3.17 131.024,-11.412 174.056,-20.122c-5.908,-189.507 7.83,-471.397 22.895,-584.046c3.864,-28.889 8.791,-48.44 12.596,-56.116l9.261,-12.405l10.836,-6.662c42.839,-16.629 82.779,1.513 114.049,35.566c37.608,40.954 61.014,104.181 63.103,117.08c45.073,278.279 60.243,309.977 -12.012,449.914c58.368,6.036 75.1,-4.02 150.132,-6.263c2.01,-8.412 4.958,-21.968 6.222,-33.823c3.706,-34.768 4.826,-81.417 4.482,-132.364c-1.105,-163.688 -17.498,-370.553 -17.62,-382.795c-0.183,-18.396 14.604,-33.48 33,-33.664c18.396,-0.183 33.481,14.604 33.664,33c0.164,16.457 29.165,381.771 12.24,527.604c-3.797,32.72 -11.111,56.369 -19.058,67.949l-8.464,9.629l-8.48,5.881l-9.017,3.538l-10.027,1.365c-113.779,1.466 -113.097,18.529 -224.582,-1.03c-10.577,-1.856 -19.612,-8.694 -24.271,-18.369c-4.66,-9.675 -4.373,-21.003 0.771,-30.429c88.828,-162.797 72.186,-171.811 27.211,-449.483c-1.489,-9.193 -19.597,-53.464 -46.398,-82.649c-8.445,-9.197 -17.556,-17.977 -27.994,-19.847c-16.893,88.428 -33.763,423.563 -24.876,623.754c0.72,16.226 -10.359,30.609 -26.232,34.054c-18.197,3.948 -161.14,34.238 -231.268,26.252c-19.993,-2.276 -33.084,-7.608 -41.272,-13.36l-12.177,-12.097l-4.516,-8.084l-2.775,-8.729l-0.761,-14.936l4.684,-17.673c5.648,-13.395 18.771,-30.708 35.73,-50.622c30.526,-35.846 39.201,-53.685 36.412,-113.848c-3.351,-72.286 -20.975,-195.572 -41.251,-442.653c-1.505,-18.336 12.159,-34.443 30.495,-35.948c18.336,-1.505 34.443,12.16 35.948,30.495c20.384,248.398 38.034,372.347 41.403,445.019c3.931,84.795 -9.226,109.636 -52.251,160.159c-5.073,5.956 -9.783,11.543 -13.888,16.758Z"/><path d="M2992.82,2742.17c0.528,-18.39 15.887,-32.891 34.277,-32.362c18.389,0.528 32.891,15.887 32.362,34.276c-3.871,134.758 26.667,127.856 117.134,280.688c20.448,34.544 66.09,76.697 104.284,129.283c43.494,59.882 77.634,131.789 68.049,217.791c-6.275,56.297 -22.9,97.683 -39.175,137.219c-20.721,50.332 -40.927,97.175 -27.176,178.559c3.065,18.14 -9.174,35.356 -27.314,38.421c-18.14,3.065 -35.355,-9.174 -38.421,-27.314c-13.933,-82.466 0.159,-135.857 19.857,-186.778c16.907,-43.708 39.024,-85.154 45.972,-147.492c7.565,-67.871 -21.408,-123.97 -55.732,-171.228c-39.623,-54.554 -86.5,-98.666 -107.713,-134.502c-101.389,-171.282 -130.743,-165.535 -126.404,-316.561Z"/><path d="M3263.79,3730.6c-18.383,-0.725 -32.72,-16.237 -31.995,-34.62c0.724,-18.383 16.237,-32.72 34.62,-31.995c74.647,2.941 82.416,8.986 142.199,3.125c40.482,-265.548 57.345,-263.933 73.004,-344.602c39.682,-204.422 -35.02,-339.712 -49.362,-365.498c-8.942,-16.078 -3.148,-36.391 12.93,-45.333c16.077,-8.942 36.39,-3.148 45.332,12.93c16.117,28.978 101.14,180.873 56.545,410.605c-16.018,82.514 -33.405,78.239 -76.329,367.097c-2.205,14.841 -14.055,26.38 -28.949,28.19c-89.369,10.864 -88.649,3.621 -177.995,0.101Z"/><path d="M2950.06,3589.85c3.786,0.518 7.833,0.965 11.339,1.114c32.752,1.398 76.625,-2.733 109.518,-5.446c92.823,-424.406 87.926,-431.532 93.565,-472.237c2.524,-18.224 19.368,-30.969 37.591,-28.445c18.223,2.524 30.969,19.369 28.445,37.592c-5.804,41.896 -0.459,48.602 -99.804,501.673c-3.214,14.659 -15.828,25.363 -30.814,26.149c-30.868,1.619 -88.178,8.239 -131.513,7.597c-23.059,-0.341 -42.834,-3.073 -55.571,-7.984l-16.825,-9.645l-10.652,-12.636l-5.169,-14.74l0.194,-15.014c12.692,-70.76 51.465,-161.257 71.509,-254.741c17.95,-83.712 20.908,-170.395 -35.117,-244.544c-11.09,-14.679 -8.177,-35.6 6.501,-46.69c14.679,-11.091 35.6,-8.178 46.69,6.501c68.576,90.761 69.082,196.242 47.111,298.71c-18.055,84.205 -51.577,165.927 -66.998,232.786Z"/><path d="M3344.33,2069.26c-11.653,14.236 -32.672,16.333 -46.907,4.679c-14.236,-11.653 -16.333,-32.672 -4.679,-46.908c104.236,-127.333 268.15,-110.185 330.13,-22.533c41.084,58.101 44.117,151.668 -51.755,259.851c-12.202,13.769 -33.286,15.041 -47.055,2.839c-13.768,-12.202 -15.041,-33.286 -2.839,-47.055c66.336,-74.855 75.643,-136.943 47.216,-177.145c-42.265,-59.772 -153.03,-60.559 -224.111,26.272Z"/><path d="M1391.75,1205.91c11.117,4.123 19.683,14.059 21.454,26.614c2.809,19.915 -1.748,35.502 -9.504,47.572c-11.214,17.448 -30.443,28.037 -50.676,31.202c-22.717,3.553 -45.393,-3.054 -57.411,-13.004c-3.406,-2.819 -6.277,-5.679 -8.701,-8.523l-7.133,-10.401l-4.704,-12.155l-1.52,-12.827l3.478,-18.418c2.522,-6.753 6.5,-13.454 11.743,-19.753c17.175,-20.635 51.408,-37.238 55.713,-39.222c16.708,-7.699 36.524,-0.384 44.224,16.324c1.882,4.086 2.867,8.357 3.037,12.591Z"/><path d="M2770.4,2990.39c7.043,-6.556 36.247,-32.455 60.246,-41.226c6.671,-2.438 13.149,-3.836 19.13,-4.224l16.168,1.417l14.41,6.351l11.786,11.14c11.141,14.833 17.884,26.715 23.457,36.517c3.491,6.142 5.516,11.2 10.164,14.969c5.067,4.108 12.646,6.431 25.111,9.484c14.691,3.597 28.098,-7.27 42.019,-17.768c23.092,-17.413 45.087,-39.477 64.732,-52.523c31.33,-20.806 59.994,-22.558 83.859,-2.169c102.804,87.826 230.599,32.372 286.923,-39.772c18.333,-23.483 40.511,-54.912 53.611,-89.058c16.45,-42.88 16.909,-90.838 -35.372,-127.988c-10.237,-7.275 -15.517,-19.687 -13.658,-32.107c1.86,-12.421 10.542,-22.742 22.461,-26.7c5.532,-1.837 22.515,-4.749 39.419,-13.947c11.976,-6.516 24.495,-16.836 28.536,-34.994c12.577,-56.503 -24.082,-79.554 -30.183,-83.138c-9.23,-5.421 -15.295,-14.945 -16.304,-25.601c-1.008,-10.657 3.162,-21.149 11.211,-28.206c13.727,-12.034 29.13,-24.514 41.583,-38.87c13.176,-15.191 23.037,-32.842 16.664,-56.507c-10.735,-39.862 -52.706,-52.901 -58.888,-54.612c-17.73,-4.907 -28.141,-23.286 -23.234,-41.017c4.907,-17.73 23.286,-28.141 41.017,-23.234c11.269,3.119 85.91,28.863 105.478,101.527c11.137,41.357 0.742,74.518 -19.144,102.837c-8.582,12.222 -19.188,23.428 -30.33,33.955c21.136,23.846 41.254,64.23 27.205,127.351c-8.94,40.164 -35.848,63.809 -61.378,77.93c72.332,91.809 5.383,207.403 -46.146,273.405c-74.387,95.28 -242.805,165.216 -379.157,52.474c-2.163,1.042 -5.19,2.581 -7.292,3.977c-9.919,6.587 -20.418,15.896 -31.466,25.459c-20.775,17.984 -43.196,36.509 -65.893,46.755c-20.428,9.221 -41.307,12.394 -62.131,7.294c-46.708,-11.439 -58.787,-25.396 -72.051,-47.127c-4.408,-7.221 -8.79,-16.045 -16.086,-27.134c-2.57,1.405 -5.309,2.991 -7.337,4.395c-14.706,10.187 -27.123,22.496 -27.537,22.811c-44.942,34.144 -80.608,33.302 -106.863,22.675c-30.227,-12.234 -49.524,-41.98 -58.849,-60.552c-4.049,2.592 -9.046,5.957 -12.787,9.018c-12.679,10.373 -26.198,22.897 -40.136,33.669c-27.548,21.29 -57.445,34.55 -85.887,29.958c-24.346,-3.93 -51.624,-20.677 -75.149,-66.171c-12.341,11.023 -25.642,25.496 -37.826,33.669c-28.492,19.112 -53.777,24.843 -75.992,23.797c-32.267,-1.519 -59.079,-18.284 -81.392,-37.026c-7.165,-6.019 -16.932,-14.021 -23.508,-19.388c-27.59,39.544 -52.175,53.073 -74.715,54.874c-15.925,1.272 -32.592,-3.067 -51.175,-13.387c-18.255,-10.137 -39.887,-27.122 -68.798,-46.583c-4.516,8.044 -11.318,19.81 -17.923,29.897c-19.882,30.367 -38.158,41.753 -80.979,44.611c-29.471,1.968 -75.471,-1.172 -155.267,-1.062c-18.397,0.026 -33.354,-14.89 -33.379,-33.287c-0.026,-18.397 14.89,-33.354 33.287,-33.379c77.562,-0.108 122.273,3.122 150.919,1.21c15.307,-1.022 22.536,-3.755 29.643,-14.61c13.866,-21.178 21.327,-38.704 29.839,-48.009l13.445,-10.837l9.277,-4.031l10.202,-2.032c11.339,-1.017 26.817,1.874 47.67,15.892c23.162,15.571 41.375,29.594 56.936,39.454c8.277,5.245 14.344,10.229 20.993,9.698c3.498,-0.279 6.09,-3.357 9.817,-7.104c5.925,-5.958 12.081,-14.08 18.967,-24.527c5.567,-8.446 11.391,-14.349 17.033,-18.509l11.97,-6.701l13.651,-3.354l10.716,0.051l9.569,1.917c6.885,2.009 14.115,5.558 21.497,10.611c10.381,7.106 21.81,18.126 34.716,28.808c11.44,9.47 24.208,19.687 40.644,20.231c10.436,0.345 21.881,-3.656 35.199,-12.59c10.914,-7.321 22.657,-20.269 33.797,-30.286c12.507,-11.246 25.077,-19.456 35.476,-22.594l9.221,-1.896l10.866,0.083l15.222,4.84l12.228,9.496l6.251,8.323l4.329,8.512c7.098,16.862 14.113,29.136 21.608,37.427c3.823,4.229 7.282,7.177 11.208,8.046c6.667,1.475 12.971,-2.28 19.582,-6.144c12.738,-7.444 25.116,-18.329 37.012,-28.612c22.478,-19.431 44.451,-36.231 62.649,-40.927l15.773,-1.977l17.485,3.095l15.846,8.862l11.908,12.518c0.213,0.29 4.022,10.021 10.919,22.501c4.734,8.566 11.847,21.215 24.97,23.775c9.945,1.94 21.555,-2.791 36.682,-14.069Z"/><path d="M2124.55,2139.12c-4.531,17.831 -22.686,28.628 -40.517,24.096c-17.83,-4.531 -28.627,-22.686 -24.096,-40.516c1.353,-5.321 10.493,-58.401 32.859,-105.2c18.137,-37.951 45.421,-70.7 80.352,-82.216c37.966,-12.516 67.868,-9.482 91.241,-0.102c21.441,8.605 37.524,23.306 49.31,38.515c17.988,-23.027 34.186,-40.076 49.044,-52.048c19.799,-15.953 38.291,-24.003 55.72,-26.616c31.163,-4.672 61.673,8.746 94.905,38.133c13.931,-18.423 27.447,-33.56 40.881,-44.706c18.022,-14.954 36.465,-23.523 55.409,-25.881c19.763,-2.46 40.582,1.52 62.862,14.761c18.017,10.708 37.822,28.483 59.641,55.008c5.394,-6.163 11.368,-12.345 17.902,-17.903c27.814,-23.661 63.608,-37.452 106.951,-17.5c45.219,20.815 72.709,54.377 88.903,82.446c19.197,-16.755 36.454,-28.786 52.309,-36.385c21.827,-10.46 41.984,-13.543 61.388,-10.583c18.752,2.861 37.207,11.547 55.834,27.308c16.172,13.682 33.03,33.449 51.469,59.51c16.02,-10.54 32.084,-19.437 47.942,-24.547c22.333,-7.196 44.553,-7.766 66.543,0.908c25.904,10.219 53.711,35.59 79.065,88.867c19.383,-3.511 34.406,-6.695 47.292,-8.076c16.733,-1.793 30.861,-0.967 44.949,3.378c20.374,6.284 41.553,20.729 71.66,52.79c31.716,33.773 32.326,62.351 22.342,95.646c-4.493,14.982 -12.09,31.389 -18.747,51.163c-5.87,17.436 -24.791,26.826 -42.227,20.956c-17.435,-5.87 -26.825,-24.791 -20.956,-42.227c6.385,-18.966 13.763,-34.671 18.073,-49.041c3.218,-10.733 3.141,-19.973 -7.083,-30.861c-18.619,-19.827 -30.111,-30.834 -42.711,-34.72c-7.843,-2.42 -15.74,-1.333 -25.861,0.223c-15.959,2.453 -35.433,6.867 -61.86,10.9c-15.33,2.34 -30.249,-6.202 -35.992,-20.607c-17.957,-45.042 -33.463,-68.902 -52.407,-76.374c-9.748,-3.845 -19.495,-0.876 -29.415,3.538c-16.5,7.342 -32.918,19.566 -49.408,31.749c-7.402,5.469 -16.736,7.635 -25.79,5.983c-9.053,-1.651 -17.021,-6.973 -22.016,-14.703c-18.453,-28.559 -34.539,-50.736 -50.007,-66.229c-10.694,-10.713 -20.157,-18.014 -30.745,-19.63c-9.779,-1.492 -19.6,2.505 -31.087,9.474c-17.619,10.689 -37.045,28.117 -60.055,51.874c-8.252,8.519 -20.408,12.012 -31.924,9.173c-11.515,-2.84 -20.654,-11.584 -23.999,-22.963c-2.592,-8.816 -18.078,-62.937 -73.355,-88.382c-14.678,-6.756 -26.459,-0.292 -35.878,7.72c-17.124,14.567 -29.17,34.644 -36.766,43.356c-6.746,7.74 -16.683,11.938 -26.935,11.381c-10.252,-0.558 -19.675,-5.808 -25.543,-14.233c-21.532,-30.914 -40.131,-52.438 -57.338,-65.494c-10.657,-8.086 -19.69,-12.63 -28.786,-11.498c-10.041,1.25 -18.819,8.271 -28.371,17.662c-14.269,14.027 -28.479,33.497 -43.862,56.648c-5.675,8.541 -14.965,13.994 -25.189,14.786c-10.223,0.792 -20.242,-3.165 -27.165,-10.73c-15.336,-16.758 -28.901,-30.351 -42.254,-39.009c-7.696,-4.99 -14.846,-8.307 -22.703,-7.129c-10.298,1.544 -20.421,8.8 -32.639,20.393c-17.216,16.333 -36.222,40.568 -58.553,73.828c-7.165,10.67 -19.826,16.272 -32.54,14.395c-12.715,-1.876 -23.219,-10.895 -26.996,-23.18c-1.622,-5.276 -10.056,-38.107 -38.062,-49.347c-11.671,-4.684 -26.578,-4.703 -45.537,1.547c-19.115,6.302 -31.149,26.881 -41.074,47.648c-19.709,41.239 -27.205,88.185 -28.397,92.873Z"/><path d="M1384.87,1006.4c0.573,-1.198 1.992,-4.26 2.589,-6.384c1.836,-6.535 2.743,-14.194 3.252,-22.514c1.602,-26.195 -1.059,-57.736 -2.354,-86.257c-1.5,-33.064 -0.446,-62.774 6.196,-80.843c1.385,-3.766 2.981,-7.204 4.749,-10.313l7.439,-10.292l6.904,-6.301l8.42,-5.14c32.437,-15.577 65.311,-3.317 95.707,33.9c21.689,26.556 44.025,67.362 69.953,104.759c21.092,30.421 43.932,59.375 73.674,69.609c29.75,10.237 48.261,25.562 60.054,42.464c17.493,25.068 20.381,54.978 17.403,83.474c-1.342,12.85 -3.797,25.258 -5.656,36.161c-0.171,1.001 -0.337,2.087 -0.494,3.196c43.788,14.133 68.62,34.93 82.613,56.874c24.137,37.852 17.46,83.297 5.086,122.656c-3.37,10.718 -7.545,24.899 -10.208,34.048c38.033,16.972 60.858,35.421 73.208,57.738c9.437,17.052 13.594,36.829 11.915,61.478c-1.354,19.879 -6.866,43.89 -16.057,73.666c14.722,2.548 24.869,6.123 34.507,12.872c11.182,7.831 22.206,20.438 37.489,44.005c25.055,38.637 23.439,79.798 10.874,115.946c-7.185,20.673 -20.031,41.801 -31.103,57.786c35.548,27.804 50.942,55.436 55.252,82.041c3.493,21.566 -0.118,43.506 -9.324,66.313c-1.957,4.846 -4.188,9.753 -6.652,14.73c16.931,-0.54 34.945,1.836 52.636,9.372c39.852,16.975 82.03,60.061 102.031,163.119c3.505,18.06 -8.312,35.568 -26.373,39.073c-18.06,3.505 -35.568,-8.312 -39.073,-26.373c-13.569,-69.92 -35.673,-102.968 -62.711,-114.485c-17.279,-7.36 -35.067,-4.723 -49.227,-0.696c-18.689,5.315 -32.528,13.649 -36.27,15.208c-13.459,5.606 -29.001,1.814 -38.366,-9.361c-9.365,-11.175 -10.38,-27.14 -2.506,-39.411c15.265,-23.79 29.969,-45.336 39.994,-65.704c7.116,-14.459 12.197,-27.76 10.032,-41.125c-3.151,-19.452 -20.619,-36.084 -54.374,-56.436c-7.672,-4.626 -13.159,-12.145 -15.224,-20.863c-2.065,-8.717 -0.534,-17.899 4.248,-25.475c1.936,-3.066 22.832,-24.515 37.42,-53.965c10.602,-21.404 18.977,-48.445 2.781,-73.421c-8.57,-13.215 -13.525,-21.278 -19.795,-25.669c-3.589,-2.513 -7.704,-2.526 -13.384,-3.175c-8.098,-0.925 -17.928,-1.559 -30.472,-2.725c-10.207,-0.948 -19.41,-6.541 -24.953,-15.163c-5.544,-8.623 -6.812,-19.317 -3.438,-28.997c12.275,-35.222 20.879,-62.674 24.296,-84.86c2.276,-14.777 2.636,-26.139 -2.503,-35.425c-8.159,-14.743 -26.414,-23.176 -54.009,-34.176l-11.187,-6.221l-9.533,-9.562l-6.133,-11.301l-2.772,-10.924c-1.688,-11.889 1.31,-28.756 7.582,-48.154c4.691,-14.506 11.065,-31.406 14.369,-48.817c2.332,-12.289 3.451,-24.956 -1.528,-36.525c-7.28,-16.916 -26.578,-28.97 -62.515,-38.18l-10.303,-3.974l-9.551,-6.855l-7.194,-8.831l-4.357,-9.127c-3.388,-9.609 -3.889,-23.73 -1.242,-40.606c1.758,-11.203 4.727,-24.517 6.018,-38.341c1.176,-12.581 1.7,-26.063 -6.183,-37.029c-5.216,-7.256 -13.987,-12.81 -26.829,-17.229c-29.82,-10.26 -56.29,-31.754 -79.601,-59.027c-29.634,-34.672 -54.396,-78.934 -77.464,-113.454c-8.51,-12.735 -16.617,-23.973 -24.881,-32.052c-0.676,-0.66 -1.486,-1.355 -2.336,-2.038c-0.383,2.507 -0.707,5.123 -0.834,7.401c-1.072,19.295 0.667,43.538 1.926,67.943c2.12,41.104 2.051,82.499 -7.798,108.534c-7.139,18.871 -18.834,31.998 -34.212,39.167c-90.715,42.293 -126.357,78.328 -161.979,113.904c-39.89,39.838 -79.738,79.189 -181.168,124.585c-28.189,12.616 -32.18,45.795 -21.297,78.328c21.733,64.969 102.088,127.992 232.284,112.182c47.631,-5.784 46.467,-5.193 95.108,-10.627c13.515,-1.51 26.591,5.341 33.043,17.311c42.309,78.493 17.632,136.974 -16.143,189.986c-12.069,18.942 -25.354,36.989 -35.24,55.308c-7.166,13.278 -12.727,26.497 -11.825,40.886c1.311,20.923 15.867,42.161 47.49,68.774c12.538,10.55 15.547,28.648 7.1,42.689c-22.032,36.617 -36.938,63.943 -44.849,85.802c-5.055,13.969 -7.399,24.217 -4.109,33.378c5.612,15.627 21.998,26.767 44.79,43.726c13.12,9.761 17.221,27.597 9.683,42.109c-17.03,32.783 -28.336,58.25 -34.431,78.885c-4.429,14.998 -6.123,26.348 -3.798,35.933c1.964,8.096 7.134,14.235 13.795,20.645c10.761,10.354 24.998,20.399 41.719,32.691c12.491,9.184 17.002,25.767 10.883,40.013c-13.998,32.588 -25.163,57.768 -31.45,79.102c-4.454,15.117 -6.483,27.418 -2.897,39.481c5.732,19.277 22.88,36.702 52.15,61.703c8.638,7.379 12.924,18.649 11.37,29.904c-4.411,31.96 -13.301,65.689 4.57,96.87c11.889,20.745 35.45,39.193 76.563,56.628c14.82,6.284 23.031,22.262 19.515,37.97c-1.393,6.224 -7.821,34.441 -3.962,65.779c3.312,26.889 14.57,56.978 48.309,73.003c107.115,50.88 98.192,62.378 156.884,167.455c8.971,16.062 3.215,36.385 -12.847,45.356c-16.061,8.972 -36.385,3.215 -45.356,-12.846c-48.349,-86.56 -39.047,-97.833 -127.285,-139.746c-58.472,-27.774 -80.132,-78.471 -85.871,-125.073c-2.869,-23.29 -1.591,-45.304 0.443,-61.752c-44.187,-22.58 -69.542,-47.988 -84.234,-73.625c-22.453,-39.178 -20.29,-80.821 -15.152,-121.371c-33.829,-30.947 -51.55,-56.204 -58.998,-81.254c-7.011,-23.578 -5.856,-47.778 2.85,-77.325c5.243,-17.793 13.451,-38.087 23.844,-62.528c-32.178,-25.125 -52.629,-46.501 -59.631,-75.363c-7.132,-29.399 -0.39,-69.819 31.478,-136.487c-23.678,-19.87 -38.621,-37.703 -45.677,-57.35c-6.429,-17.901 -7.433,-37.748 -0.922,-62.443c6.041,-22.911 19.521,-51.639 41.648,-90.128c-37.288,-37.423 -49.752,-71.063 -50.351,-101.277c-0.691,-34.803 15.494,-67.176 36.614,-99.543c25.47,-39.032 61.979,-78.581 43.386,-134.353c-25.573,2.753 -32.548,3.315 -70.171,7.884c-202.982,24.649 -308.197,-106.767 -312.336,-203.503c-2.155,-50.365 20.383,-93.586 66.078,-114.037c90.3,-40.415 125.781,-75.44 161.293,-110.906c39.588,-39.536 79.228,-79.536 179.451,-126.47Z"/></g></g></g><g><g><g><rect x="5089.63" y="905.828" width="264.605" height="1679.98"/><rect x="5089.63" y="2301.39" width="928.64" height="284.415"/></g><g><rect x="6120.88" y="905.828" width="264.605" height="1679.98"/><rect x="6120.88" y="2301.39" width="928.64" height="284.415"/></g><g><path d="M8221.59,905.828l-755.71,1679.98l-313.764,-0l750.404,-1679.98l319.07,-0Z"/><path d="M7902.52,905.828l755.208,1679.98l313.764,-0l-749.902,-1679.98l-319.07,-0Z"/><path d="M8135.38,2012.37l129.269,271.346l-684.867,2.38l123.123,-273.706l432.475,-0.02Z"/></g><g><rect x="9074.1" y="905.828" width="288.37" height="1679.98"/><rect x="10470.8" y="905.828" width="288.37" height="1679.98"/><path d="M10752.7,905.828l-836.07,1318.81l-158.938,-248.781l713.105,-1070.03l281.903,-0Z"/><path d="M9074.1,905.828l842.537,1318.81l147.74,-233.043l-702.973,-1085.76l-287.304,-0Z"/></g><g><path d="M11931.2,905.828l-755.711,1679.98l-313.763,-0l750.403,-1679.98l319.071,-0Z"/><path d="M11612.2,905.828l755.208,1679.98l313.764,-0l-749.901,-1679.98l-319.071,-0Z"/><path d="M11845,2012.37l129.269,271.346l-684.866,2.38l123.122,-273.706l432.475,-0.02Z"/></g><g><path d="M13653.1,2061.57l357.455,524.234l-336.912,-0l-292.504,-458.967l271.961,-65.267Z"/><path d="M12783.8,905.828l594.613,-0c336.946,-0 610.504,273.558 610.504,610.504c0,336.947 -273.558,610.505 -610.504,610.505c-121.163,0 -194.546,-13.168 -194.546,-13.168l102.715,-278.692c-0,-0 -10.556,1.674 114.985,1.674c195.388,0 330.864,-124.93 330.864,-320.319c0,-195.388 -157.156,-351.14 -352.544,-351.14c-61.65,0 -596.087,0.577 -596.087,0.577l-0,-259.941Z"/><rect x="12783.8" y="905.828" width="283.929" height="1679.98"/></g><g><path d="M15166.8,905.828l-755.71,1679.98l-313.764,-0l750.404,-1679.98l319.07,-0Z"/><path d="M14847.7,905.828l755.208,1679.98l313.764,-0l-749.902,-1679.98l-319.07,-0Z"/><path d="M15080.6,2012.37l129.269,271.346l-684.866,2.38l123.122,-273.706l432.475,-0.02Z"/></g></g><g transform="matrix(818.638,0,0,818.638,12098.8,3442.2)"></g><text x="5051.98px" y="3442.2px" style="font-family:'ProximaNova-Medium', 'Proxima Nova';font-weight:500;font-size:818.638px;">Chat with your data</text></g></svg>