<?xml version="1.0" standalone="no"?>
<!DOCTYPE svg PUBLIC "-//W3C//DTD SVG 20010904//EN"
 "http://www.w3.org/TR/2001/REC-SVG-20010904/DTD/svg10.dtd">
<svg version="1.0" xmlns="http://www.w3.org/2000/svg"
 width="225.000000pt" height="225.000000pt" viewBox="0 0 225.000000 225.000000"
 preserveAspectRatio="xMidYMid meet">

<g transform="translate(0.000000,225.000000) scale(0.100000,-0.100000)"
fill="#000000" stroke="none">
<path d="M664 2126 c-39 -17 -82 -70 -106 -130 -28 -71 -41 -208 -30 -301 l9
-80 -52 -55 c-92 -97 -130 -202 -123 -335 3 -64 11 -95 35 -147 l31 -66 -25
-69 c-48 -132 -41 -309 18 -428 l20 -40 -21 -60 c-23 -65 -37 -209 -26 -269
l7 -36 60 0 c58 0 60 1 52 23 -4 12 -8 60 -7 107 0 82 8 114 55 227 12 30 11
35 -9 60 -38 49 -52 80 -64 152 -16 92 0 194 42 268 36 64 37 77 6 117 -101
133 -80 321 48 434 59 51 94 65 176 69 80 3 86 6 122 71 22 41 101 97 167 118
72 22 137 14 214 -29 57 -31 79 -53 140 -141 11 -15 24 -19 67 -17 147 5 273
-107 301 -268 14 -80 -1 -154 -46 -217 -41 -58 -43 -82 -11 -132 33 -50 49
-113 49 -197 1 -92 -18 -166 -54 -211 -34 -43 -36 -62 -9 -114 44 -87 59 -213
34 -297 -6 -22 -4 -23 54 -23 l61 0 7 46 c10 69 -1 180 -26 253 l-21 64 25 58
c55 120 57 309 5 429 l-21 49 27 55 c38 78 52 170 38 251 -15 88 -62 184 -119
245 l-47 50 -1 162 c-1 145 -4 169 -25 221 -43 109 -113 161 -184 138 -37 -13
-87 -60 -110 -106 -19 -39 -47 -144 -47 -180 0 -22 -3 -26 -17 -19 -159 69
-259 69 -414 0 -13 -6 -18 5 -28 63 -22 122 -78 215 -144 240 -36 14 -45 13
-83 -3z m78 -142 c41 -71 65 -268 36 -291 -7 -6 -41 -13 -75 -16 l-63 -7 0
104 c0 105 14 175 45 222 20 30 34 27 57 -12z m822 14 c27 -41 46 -140 46
-235 l0 -94 -67 7 c-44 5 -72 13 -80 23 -25 35 8 236 49 293 24 34 33 35 52 6z"/>
<path d="M1030 1275 c-152 -43 -244 -170 -212 -293 18 -65 58 -112 126 -146
49 -25 75 -31 149 -34 158 -8 259 32 313 123 54 94 31 202 -61 283 -78 69
-208 96 -315 67z m210 -90 c145 -73 160 -214 31 -282 -38 -20 -59 -23 -145
-23 -86 0 -109 4 -146 23 -75 37 -107 110 -81 180 14 37 78 94 125 111 54 20
169 16 216 -9z"/>
<path d="M1053 1083 c-3 -7 4 -24 15 -36 11 -12 22 -35 24 -52 2 -23 9 -31 27
-33 27 -4 43 15 35 41 -4 12 3 28 16 42 36 38 21 53 -50 53 -44 0 -63 -4 -67
-15z"/>
<path d="M682 1247 c-55 -59 0 -155 73 -127 26 10 55 56 55 88 0 28 -42 62
-76 62 -19 0 -39 -9 -52 -23z"/>
<path d="M1460 1250 c-46 -46 -5 -134 61 -132 63 2 90 72 48 126 -26 33 -79
36 -109 6z"/>
</g>
</svg>
